<?xml version="1.0" encoding="utf-8"?>
<svg version="1.1" xmlns:xlink="http://www.w3.org/1999/xlink" width="92px" height="84px" xmlns="http://www.w3.org/2000/svg">
  <g transform="matrix(1 0 0 1 -121 -260 )">
    <path d="M 121 260  L 213 260  L 213 344  L 121 344  L 121 260  " fill-rule="nonzero" fill="#cccccc" stroke="none" />
    <path d="M 127 266  L 207 266  L 207 338  L 127 338  L 127 266  " fill-rule="nonzero" fill="#ffffff" stroke="none" />
    <path d="M 175.14 285.2  C 171.612 285.2  168.84 282.428  168.84 278.9  C 168.84 275.372  171.612 272.6  175.14 272.6  C 178.668 272.6  181.44 275.372  181.44 278.9  C 181.44 282.428  178.668 285.2  175.14 285.2  " fill-rule="nonzero" fill="#cccccc" stroke="none" />
    <path d="M 129 336  L 129 298.6  L 148 281.6  L 174.6 298.747826086957  L 189.8 291.8  L 205 298.747826086957  L 205 336  L 129 336  " fill-rule="nonzero" fill="#169bd5" stroke="none" />
  </g>
</svg>