<?xml version="1.0" encoding="utf-8"?>
<svg version="1.1" xmlns:xlink="http://www.w3.org/1999/xlink" width="102px" height="84px" xmlns="http://www.w3.org/2000/svg">
  <g transform="matrix(1 0 0 1 -213 -260 )">
    <path d="M 213 260  L 315 260  L 315 344  L 213 344  L 213 260  " fill-rule="nonzero" fill="#cccccc" stroke="none" />
    <path d="M 219 266  L 309 266  L 309 338  L 219 338  L 219 266  " fill-rule="nonzero" fill="#ffffff" stroke="none" />
    <path d="M 272.34 285.2  C 268.812 285.2  266.04 282.428  266.04 278.9  C 266.04 275.372  268.812 272.6  272.34 272.6  C 275.868 272.6  278.64 275.372  278.64 278.9  C 278.64 282.428  275.868 285.2  272.34 285.2  " fill-rule="nonzero" fill="#cccccc" stroke="none" />
    <path d="M 221 336  L 221 298.6  L 242.5 281.6  L 272.6 302.4  L 289.8 291.8  L 307 302.4  L 307 336  L 221 336  " fill-rule="nonzero" fill="#169bd5" stroke="none" />
  </g>
</svg>