<?xml version="1.0" encoding="utf-8"?>
<svg version="1.1" xmlns:xlink="http://www.w3.org/1999/xlink" width="91px" height="84px" xmlns="http://www.w3.org/2000/svg">
  <g transform="matrix(1 0 0 1 -315 -260 )">
    <path d="M 315 260  L 406 260  L 406 344  L 315 344  L 315 260  " fill-rule="nonzero" fill="#cccccc" stroke="none" />
    <path d="M 321 266  L 400 266  L 400 338  L 321 338  L 321 266  " fill-rule="nonzero" fill="#ffffff" stroke="none" />
    <path d="M 368.62 285.2  C 365.092 285.2  362.32 282.428  362.32 278.9  C 362.32 275.372  365.092 272.6  368.62 272.6  C 372.148 272.6  374.92 275.372  374.92 278.9  C 374.92 282.428  372.148 285.2  368.62 285.2  " fill-rule="nonzero" fill="#cccccc" stroke="none" />
    <path d="M 323 336  L 323 298.6  L 341.75 281.6  L 368 298.338461538462  L 383 291.8  L 398 298.338461538462  L 398 336  L 323 336  " fill-rule="nonzero" fill="#169bd5" stroke="none" />
  </g>
</svg>