<?xml version="1.0" encoding="utf-8"?>
<svg version="1.1" xmlns:xlink="http://www.w3.org/1999/xlink" width="28px" height="28px" xmlns="http://www.w3.org/2000/svg">
  <g transform="matrix(1 0 0 1 -184 -262 )">
    <path d="M 198 262  C 205.84 262  212 268.16  212 276  C 212 283.84  205.84 290  198 290  C 190.16 290  184 283.84  184 276  C 184 268.16  190.16 262  198 262  Z " fill-rule="nonzero" fill="#ffffff" stroke="none" />
    <path d="M 198 262.5  C 205.56 262.5  211.5 268.44  211.5 276  C 211.5 283.56  205.56 289.5  198 289.5  C 190.44 289.5  184.5 283.56  184.5 276  C 184.5 268.44  190.44 262.5  198 262.5  Z " stroke-width="1" stroke="#797979" fill="none" />
  </g>
</svg>