<?xml version="1.0" encoding="utf-8"?>
<svg version="1.1" xmlns:xlink="http://www.w3.org/1999/xlink" width="33px" height="50px" xmlns="http://www.w3.org/2000/svg">
  <g transform="matrix(1 0 0 1 -424 -578 )">
    <path d="M 22.51025390625 11.6536458333333  C 23.31591796875 12.4782986111111  23.71875 13.4548611111111  23.71875 14.5833333333333  C 23.71875 14.8654513888889  23.61669921875 15.1095920138889  23.41259765625 15.3157552083333  C 23.20849609375 15.5219184027778  22.966796875 15.625  22.6875 15.625  C 22.408203125 15.625  22.16650390625 15.5219184027778  21.96240234375 15.3157552083333  C 21.75830078125 15.1095920138889  21.65625 14.8654513888889  21.65625 14.5833333333333  C 21.65625 13.5850694444444  21.076171875 12.8146701388889  19.916015625 12.2721354166667  C 18.755859375 11.7296006944444  17.6171875 11.4583333333333  16.5 11.4583333333333  C 16.220703125 11.4583333333333  15.97900390625 11.3552517361111  15.77490234375 11.1490885416667  C 15.57080078125 10.9429253472222  15.46875 10.6987847222222  15.46875 10.4166666666667  C 15.46875 10.1345486111111  15.57080078125 9.89040798611111  15.77490234375 9.68424479166667  C 15.97900390625 9.47808159722222  16.220703125 9.375  16.5 9.375  C 17.57421875 9.375  18.64306640625 9.54861111111111  19.70654296875 9.89583333333333  C 20.77001953125 10.2430555555556  21.70458984375 10.8289930555556  22.51025390625 11.6536458333333  Z M 26.68359375 20.4427083333333  C 28.14453125 18.7282986111111  28.875 16.7751736111111  28.875 14.5833333333333  C 28.875 13.0208333333333  28.50439453125 11.5668402777778  27.76318359375 10.2213541666667  C 27.02197265625 8.87586805555555  26.05517578125 7.77452256944444  24.86279296875 6.91731770833333  C 23.67041015625 6.06011284722222  22.34912109375 5.38736979166667  20.89892578125 4.89908854166667  C 19.44873046875 4.41080729166667  17.982421875 4.16666666666667  16.5 4.16666666666667  C 15.017578125 4.16666666666667  13.55126953125 4.41080729166667  12.10107421875 4.89908854166667  C 10.65087890625 5.38736979166667  9.32958984375 6.06011284722222  8.13720703125 6.91731770833333  C 6.94482421875 7.77452256944444  5.97802734375 8.87586805555555  5.23681640625 10.2213541666667  C 4.49560546875 11.5668402777778  4.125 13.0208333333333  4.125 14.5833333333333  C 4.125 16.7751736111111  4.85546875 18.7282986111111  6.31640625 20.4427083333333  C 6.53125 20.6814236111111  6.85888671875 21.0394965277778  7.29931640625 21.5169270833333  C 7.73974609375 21.9943576388889  8.0673828125 22.3524305555556  8.2822265625 22.5911458333333  C 11.0322265625 25.9114583333333  12.546875 29.1449652777778  12.826171875 32.2916666666667  L 20.173828125 32.2916666666667  C 20.453125 29.1449652777778  21.9677734375 25.9114583333333  24.7177734375 22.5911458333333  C 24.9326171875 22.3524305555556  25.26025390625 21.9943576388889  25.70068359375 21.5169270833333  C 26.14111328125 21.0394965277778  26.46875 20.6814236111111  26.68359375 20.4427083333333  Z M 31.56591796875 8.57747395833333  C 32.52197265625 10.4329427083333  33 12.4348958333333  33 14.5833333333333  C 33 17.9470486111111  31.8935546875 20.8550347222222  29.6806640625 23.3072916666667  C 28.7138671875 24.3706597222222  27.91357421875 25.3146701388889  27.27978515625 26.1393229166667  C 26.64599609375 26.9639756944444  26.0068359375 28.0002170138889  25.3623046875 29.248046875  C 24.7177734375 30.4958767361111  24.3525390625 31.6623263888889  24.2666015625 32.7473958333333  C 25.2763671875 33.3550347222222  25.78125 34.2447916666667  25.78125 35.4166666666667  C 25.78125 36.2196180555556  25.5126953125 36.9140625  24.9755859375 37.5  C 25.5126953125 38.0859375  25.78125 38.7803819444444  25.78125 39.5833333333333  C 25.78125 40.7118055555556  25.2978515625 41.5907118055556  24.3310546875 42.2200520833333  C 24.6103515625 42.7191840277778  24.75 43.2291666666667  24.75 43.75  C 24.75 44.7482638888889  24.41162109375 45.5186631944444  23.73486328125 46.0611979166667  C 23.05810546875 46.6037326388889  22.2255859375 46.875  21.2373046875 46.875  C 20.8076171875 47.8298611111111  20.1630859375 48.5894097222222  19.3037109375 49.1536458333333  C 18.4443359375 49.7178819444444  17.509765625 50  16.5 50  C 15.490234375 50  14.5556640625 49.7178819444444  13.6962890625 49.1536458333333  C 12.8369140625 48.5894097222222  12.1923828125 47.8298611111111  11.7626953125 46.875  C 10.7744140625 46.875  9.94189453125 46.6037326388889  9.26513671875 46.0611979166667  C 8.58837890625 45.5186631944444  8.25 44.7482638888889  8.25 43.75  C 8.25 43.2291666666667  8.3896484375 42.7191840277778  8.6689453125 42.2200520833333  C 7.7021484375 41.5907118055556  7.21875 40.7118055555556  7.21875 39.5833333333333  C 7.21875 38.7803819444444  7.4873046875 38.0859375  8.0244140625 37.5  C 7.4873046875 36.9140625  7.21875 36.2196180555556  7.21875 35.4166666666667  C 7.21875 34.2447916666667  7.7236328125 33.3550347222222  8.7333984375 32.7473958333333  C 8.6474609375 31.6623263888889  8.2822265625 30.4958767361111  7.6376953125 29.248046875  C 6.9931640625 28.0002170138889  6.35400390625 26.9639756944444  5.72021484375 26.1393229166667  C 5.08642578125 25.3146701388889  4.2861328125 24.3706597222222  3.3193359375 23.3072916666667  C 1.1064453125 20.8550347222222  0 17.9470486111111  0 14.5833333333333  C 0 12.4348958333333  0.47802734375 10.4329427083333  1.43408203125 8.57747395833333  C 2.39013671875 6.72200520833333  3.64697265625 5.18120659722222  5.20458984375 3.955078125  C 6.76220703125 2.72894965277777  8.52392578125 1.76323784722222  10.48974609375 1.05794270833333  C 12.45556640625 0.352647569444442  14.458984375 0  16.5 0  C 18.541015625 0  20.54443359375 0.352647569444442  22.51025390625 1.05794270833333  C 24.47607421875 1.76323784722222  26.23779296875 2.72894965277777  27.79541015625 3.955078125  C 29.35302734375 5.18120659722222  30.60986328125 6.72200520833333  31.56591796875 8.57747395833333  Z " fill-rule="nonzero" fill="#514e4e" stroke="none" transform="matrix(1 0 0 1 424 578 )" />
  </g>
</svg>