<?xml version="1.0" encoding="utf-8"?>
<svg version="1.1" xmlns:xlink="http://www.w3.org/1999/xlink" width="60px" height="60px" xmlns="http://www.w3.org/2000/svg">
  <defs>
    <filter x="409px" y="663px" width="60px" height="60px" filterUnits="userSpaceOnUse" id="filter9">
      <feOffset dx="1" dy="1" in="SourceAlpha" result="shadowOffsetInner" />
      <feGaussianBlur stdDeviation="2.5" in="shadowOffsetInner" result="shadowGaussian" />
      <feComposite in2="shadowGaussian" operator="atop" in="SourceAlpha" result="shadowComposite" />
      <feColorMatrix type="matrix" values="0 0 0 0 0  0 0 0 0 0  0 0 0 0 0  0 0 0 0.698039215686274 0  " in="shadowComposite" />
    </filter>
    <g id="widget10">
      <path d="M 438 667  C 452 667  463 678  463 692  C 463 706  452 717  438 717  C 424 717  413 706  413 692  C 413 678  424 667  438 667  Z " fill-rule="nonzero" fill="#009dd9" stroke="none" />
      <path d="M 438 667.5  C 451.72 667.5  462.5 678.28  462.5 692  C 462.5 705.72  451.72 716.5  438 716.5  C 424.28 716.5  413.5 705.72  413.5 692  C 413.5 678.28  424.28 667.5  438 667.5  Z " stroke-width="1" stroke="#ffffff" fill="none" />
    </g>
  </defs>
  <g transform="matrix(1 0 0 1 -409 -663 )">
    <use xlink:href="#widget10" filter="url(#filter9)" />
    <use xlink:href="#widget10" />
  </g>
</svg>