<?xml version="1.0" encoding="utf-8"?>
<svg version="1.1" xmlns:xlink="http://www.w3.org/1999/xlink" width="24px" height="24px" xmlns="http://www.w3.org/2000/svg">
  <g transform="matrix(1 0 0 1 -782 -329 )">
    <path d="M 794 329  C 800.72 329  806 334.28  806 341  C 806 347.72  800.72 353  794 353  C 787.28 353  782 347.72  782 341  C 782 334.28  787.28 329  794 329  Z " fill-rule="nonzero" fill="#ffffff" stroke="none" />
    <path d="M 794 329.5  C 800.44 329.5  805.5 334.56  805.5 341  C 805.5 347.44  800.44 352.5  794 352.5  C 787.56 352.5  782.5 347.44  782.5 341  C 782.5 334.56  787.56 329.5  794 329.5  Z " stroke-width="1" stroke="#797979" fill="none" />
  </g>
</svg>