<?xml version="1.0" encoding="utf-8"?>
<svg version="1.1" xmlns:xlink="http://www.w3.org/1999/xlink" width="31px" height="37px" xmlns="http://www.w3.org/2000/svg">
  <g transform="matrix(1 0 0 1 -1796 -527 )">
    <path d="M 13.9537259615385 3.17440225035162  C 14.189703525641 3.50398499765588  14.3076923076923 3.89428035630567  14.3076923076923 4.34528832630098  L 14.3076923076923 32.654711673699  C 14.3076923076923 33.1057196436943  14.189703525641 33.4960150023441  13.9537259615385 33.8255977496484  C 13.7177483974359 34.1551804969526  13.4383012820513 34.3199718706048  13.1153846153846 34.3199718706048  C 12.7924679487179 34.3199718706048  12.5130208333333 34.1551804969526  12.2770432692308 33.8255977496484  L 6.07331730769231 25.1610407876231  L 1.19230769230769 25.1610407876231  C 0.869391025641026 25.1610407876231  0.58994391025641 24.9962494139709  0.353966346153846 24.6666666666667  C 0.117988782051282 24.3370839193624  0 23.9467885607126  0 23.4957805907173  L 0 13.5042194092827  C 0 13.0532114392874  0.117988782051282 12.6629160806376  0.353966346153846 12.3333333333333  C 0.58994391025641 12.0037505860291  0.869391025641026 11.8389592123769  1.19230769230769 11.8389592123769  L 6.07331730769231 11.8389592123769  L 12.2770432692308 3.17440225035162  C 12.5130208333333 2.84481950304735  12.7924679487179 2.68002812939522  13.1153846153846 2.68002812939522  C 13.4383012820513 2.68002812939522  13.7177483974359 2.84481950304735  13.9537259615385 3.17440225035162  Z M 20.6697716346154 14.8052039381153  C 21.1976161858974 15.950070323488  21.4615384615385 17.1816690107829  21.4615384615385 18.5  C 21.4615384615385 19.8183309892171  21.1976161858974 21.0455930614158  20.6697716346154 22.1817862165963  C 20.1419270833333 23.3179793717768  19.4433092948718 24.1289263947492  18.5739182692308 24.6146272855134  C 18.4497195512821 24.7013595874355  18.2944711538462 24.7447257383966  18.1081730769231 24.7447257383966  C 17.7852564102564 24.7447257383966  17.5058092948718 24.5842709798406  17.2698317307692 24.2633614627286  C 17.0338541666667 23.9424519456165  16.9158653846154 23.5478199718706  16.9158653846154 23.0794655414909  C 16.9158653846154 22.7151898734177  16.9903846153846 22.407290201594  17.1394230769231 22.1557665260197  C 17.2884615384615 21.9042428504454  17.4685496794872 21.6874120956399  17.6796875 21.5052742616034  C 17.8908253205128 21.3231364275668  18.1019631410256 21.1236521331458  18.3131009615385 20.9068213783404  C 18.5242387820513 20.6899906235349  18.7043269230769 20.3777543366151  18.8533653846154 19.9701125175809  C 19.0024038461538 19.5624706985466  19.0769230769231 19.0724331926864  19.0769230769231 18.5  C 19.0769230769231 17.9275668073136  19.0024038461538 17.4375293014533  18.8533653846154 17.0298874824191  C 18.7043269230769 16.6222456633849  18.5242387820513 16.3100093764651  18.3131009615385 16.0931786216596  C 18.1019631410256 15.8763478668542  17.8908253205128 15.6768635724332  17.6796875 15.4947257383966  C 17.4685496794872 15.3125879043601  17.2884615384615 15.0957571495546  17.1394230769231 14.8442334739803  C 16.9903846153846 14.592709798406  16.9158653846154 14.2848101265823  16.9158653846154 13.9205344585091  C 16.9158653846154 13.4521800281294  17.0338541666667 13.0575480543835  17.2698317307692 12.7366385372714  C 17.5058092948718 12.4157290201594  17.7852564102564 12.2552742616034  18.1081730769231 12.2552742616034  C 18.2944711538462 12.2552742616034  18.4497195512821 12.2986404125645  18.5739182692308 12.3853727144866  C 19.4433092948718 12.8537271448664  20.1419270833333 13.6603375527426  20.6697716346154 14.8052039381153  Z M 24.6472355769231 11.1494374120956  C 25.7029246794872 13.39580403188  26.2307692307692 15.8459915611814  26.2307692307692 18.5  C 26.2307692307692 21.1540084388186  25.7029246794872 23.60419596812  24.6472355769231 25.8505625879044  C 23.591546474359 28.0969292076887  22.1943108974359 29.7318330989217  20.4555288461538 30.7552742616034  C 20.2940705128205 30.8420065635255  20.1388221153846 30.8853727144866  19.9897836538462 30.8853727144866  C 19.6544471153846 30.8853727144866  19.3687900641026 30.7205813408345  19.1328125 30.3909985935302  C 18.8968349358974 30.061415846226  18.7788461538462 29.6711204875762  18.7788461538462 29.2201125175809  C 18.7788461538462 28.5436005625879  19.0210336538462 28.0318799812471  19.5054086538462 27.6849507735584  C 20.200921474359 27.1819034224098  20.6728766025641 26.8002812939522  20.9212740384615 26.5400843881857  C 21.8403445512821 25.6033755274262  22.5575921474359 24.4281528363807  23.0730168269231 23.0144163150492  C 23.5884415064103 21.6006797937178  23.8461538461538 20.095874355368  23.8461538461538 18.5  C 23.8461538461538 16.904125644632  23.5884415064103 15.3993202062822  23.0730168269231 13.9855836849508  C 22.5575921474359 12.5718471636193  21.8403445512821 11.3966244725738  20.9212740384615 10.4599156118143  C 20.6728766025641 10.1997187060478  20.200921474359 9.81809657759025  19.5054086538462 9.31504922644163  C 19.0210336538462 8.96812001875293  18.7788461538462 8.4563994374121  18.7788461538462 7.77988748241913  C 18.7788461538462 7.32887951242381  18.8968349358974 6.93858415377402  19.1328125 6.60900140646976  C 19.3687900641026 6.27941865916549  19.6482371794872 6.11462728551336  19.9711538461538 6.11462728551336  C 20.1326121794872 6.11462728551336  20.2940705128205 6.15799343647444  20.4555288461538 6.24472573839663  C 22.1943108974359 7.26816690107829  23.591546474359 8.90307079231129  24.6472355769231 11.1494374120956  Z M 28.6340144230769 7.50668073136428  C 30.2113381410256 10.845874355368  31 14.5103141115799  31 18.5  C 31 22.4896858884201  30.2113381410256 26.154125644632  28.6340144230769 29.4933192686357  C 27.0566907051282 32.8325128926395  24.9577323717949 35.2913736521331  22.3371394230769 36.8699015471167  C 22.1756810897436 36.9566338490389  22.0142227564103 37  21.8527644230769 37  C 21.5298477564103 37  21.2504006410256 36.8352086263479  21.0144230769231 36.5056258790436  C 20.7784455128205 36.1760431317393  20.6604567307692 35.7857477730895  20.6604567307692 35.3347398030942  C 20.6604567307692 34.7102672292546  20.9026442307692 34.1985466479137  21.3870192307692 33.7995780590717  C 21.4739583333333 33.730192217534  21.6136818910256 33.6391233005157  21.8061899038462 33.5263713080169  C 21.9986979166667 33.4136193155181  22.138421474359 33.3225503984998  22.2253605769231 33.253164556962  C 22.7966746794872 32.8195030473511  23.3058894230769 32.3771683075481  23.7530048076923 31.9261603375527  C 25.2806490384615 30.3476324425692  26.4729567307692 28.3788091889358  27.3299278846154 26.0196905766526  C 28.1868990384615 23.6605719643694  28.6153846153846 21.1540084388186  28.6153846153846 18.5  C 28.6153846153846 15.8459915611814  28.1868990384615 13.3394280356306  27.3299278846154 10.9803094233474  C 26.4729567307692 8.62119081106423  25.2806490384615 6.65236755743085  23.7530048076923 5.07383966244726  C 23.3058894230769 4.62283169245194  22.7966746794872 4.18049695264885  22.2253605769231 3.74683544303797  C 22.138421474359 3.67744960150023  21.9986979166667 3.58638068448195  21.8061899038462 3.47362869198312  C 21.6136818910256 3.36087669948429  21.4739583333333 3.26980778246601  21.3870192307692 3.20042194092827  C 20.9026442307692 2.80145335208626  20.6604567307692 2.28973277074543  20.6604567307692 1.66526019690577  C 20.6604567307692 1.21425222691045  20.7784455128205 0.823956868260662  21.0144230769231 0.494374120956399  C 21.2504006410256 0.164791373652132  21.5298477564103 0  21.8527644230769 0  C 22.0142227564103 0  22.1756810897436 0.0433661509610853  22.3371394230769 0.130098452883264  C 24.9577323717949 1.70862634786685  27.0566907051282 4.16748710736052  28.6340144230769 7.50668073136428  Z " fill-rule="nonzero" fill="#797979" stroke="none" transform="matrix(1 0 0 1 1796 527 )" />
  </g>
</svg>