<?xml version="1.0" encoding="utf-8"?>
<svg version="1.1" xmlns:xlink="http://www.w3.org/1999/xlink" width="50px" height="50px" xmlns="http://www.w3.org/2000/svg">
  <g transform="matrix(1 0 0 1 -161 -249 )">
    <path d="M 15.9319196428571 17.8013392857143  C 16.1179315476191 17.3549107142857  16.1179315476191 16.899181547619  15.9319196428571 16.4341517857143  C 15.7459077380952 15.9691220238095  15.4296875 15.6436011904762  14.9832589285714 15.4575892857143  C 14.5368303571429 15.2715773809524  14.0811011904762 15.2715773809524  13.6160714285714 15.4575892857143  C 11.6071428571429 16.2760416666667  9.83072916666667 17.4572172619048  8.28683035714286 19.0011160714286  C 6.74293154761905 20.5450148809524  5.56175595238095 22.3214285714286  4.74330357142857 24.3303571428571  C 4.55729166666667 24.7953869047619  4.55729166666667 25.2511160714286  4.74330357142857 25.6975446428571  C 4.92931547619048 26.1439732142857  5.25483630952381 26.460193452381  5.71986607142857 26.6462053571429  C 5.96168154761905 26.7392113095238  6.18489583333333 26.7857142857143  6.38950892857143 26.7857142857143  C 7.17075892857143 26.7857142857143  7.72879464285714 26.4136904761905  8.06361607142857 25.6696428571429  C 8.69605654761905 24.1071428571429  9.61216517857143 22.7260044642857  10.8119419642857 21.5262276785714  C 12.01171875 20.3264508928571  13.3928571428571 19.4103422619048  14.9553571428571 18.7779017857143  C 15.4203869047619 18.5732886904762  15.7459077380952 18.2477678571429  15.9319196428571 17.8013392857143  Z M 35.4352678571429 13.3091517857143  L 42.2154017857143 6.50111607142857  L 43.4988839285714 7.78459821428572  L 36.6908482142857 14.5647321428571  L 38.5881696428571 16.4620535714286  C 38.9415922619048 16.8154761904762  39.1183035714286 17.2386532738095  39.1183035714286 17.7315848214286  C 39.1183035714286 18.2245163690476  38.9415922619048 18.6476934523809  38.5881696428571 19.0011160714286  L 36.8024553571429 20.7868303571429  C 38.4579613095238 23.7816220238095  39.2857142857143 26.9717261904762  39.2857142857143 30.3571428571429  C 39.2857142857143 33.0171130952381  38.76953125 35.5608258928571  37.7371651785714 37.98828125  C 36.7047991071429 40.4157366071429  35.3097098214286 42.5083705357143  33.5518973214286 44.2661830357143  C 31.7940848214286 46.0239955357143  29.7014508928571 47.4190848214286  27.2739955357143 48.4514508928571  C 24.8465401785714 49.4838169642857  22.3028273809524 50  19.6428571428571 50  C 16.9828869047619 50  14.4391741071429 49.4838169642857  12.01171875 48.4514508928571  C 9.58426339285714 47.4190848214286  7.49162946428571 46.0239955357143  5.73381696428571 44.2661830357143  C 3.97600446428571 42.5083705357143  2.58091517857143 40.4157366071429  1.54854910714286 37.98828125  C 0.516183035714286 35.5608258928571  0 33.0171130952381  0 30.3571428571429  C 0 27.6971726190476  0.516183035714286 25.1534598214286  1.54854910714286 22.7260044642857  C 2.58091517857143 20.2985491071429  3.97600446428571 18.2059151785714  5.73381696428571 16.4481026785714  C 7.49162946428571 14.6902901785714  9.58426339285714 13.2952008928571  12.01171875 12.2628348214286  C 14.4391741071429 11.23046875  16.9828869047619 10.7142857142857  19.6428571428571 10.7142857142857  C 23.0282738095238 10.7142857142857  26.2183779761905 11.5420386904762  29.2131696428571 13.1975446428571  L 30.9988839285714 11.4118303571429  C 31.3523065476191 11.0584077380952  31.7754836309524 10.8816964285714  32.2684151785714 10.8816964285714  C 32.7613467261905 10.8816964285714  33.1845238095238 11.0584077380952  33.5379464285714 11.4118303571429  L 35.4352678571429 13.3091517857143  Z M 42.7176339285714 4.31082589285715  C 42.7176339285714 4.56194196428572  42.6246279761905 4.77120535714286  42.4386160714286 4.93861607142857  C 42.2526041666667 5.12462797619047  42.0479910714286 5.21763392857143  41.8247767857143 5.21763392857143  C 41.5829613095238 5.21763392857143  41.3690476190476 5.12462797619047  41.1830357142857 4.93861607142857  L 38.6439732142857 2.42745535714286  C 38.4765625 2.24144345238095  38.3928571428571 2.02752976190476  38.3928571428571 1.78571428571428  C 38.3928571428571 1.54389880952381  38.4765625 1.32998511904762  38.6439732142857 1.14397321428572  C 38.8299851190476 0.9765625  39.0438988095238 0.892857142857145  39.2857142857143 0.892857142857145  C 39.5275297619048 0.892857142857145  39.741443452381 0.9765625  39.9274553571429 1.14397321428572  L 42.4386160714286 3.68303571428572  C 42.6246279761905 3.85044642857143  42.7176339285714 4.05970982142857  42.7176339285714 4.31082589285715  Z M 49.1071428571429 10.7142857142857  C 49.1071428571429 10.9561011904762  49.0234375 11.1700148809524  48.8560267857143 11.3560267857143  C 48.6514136904762 11.5234375  48.4375 11.6071428571429  48.2142857142857 11.6071428571429  C 47.9910714285714 11.6071428571429  47.7771577380952 11.5234375  47.5725446428571 11.3560267857143  L 45.0613839285714 8.81696428571428  C 44.8753720238095 8.64955357142857  44.7823660714286 8.44029017857143  44.7823660714286 8.18917410714285  C 44.7823660714286 7.93805803571428  44.8753720238095 7.72879464285715  45.0613839285714 7.56138392857143  C 45.2287946428571 7.37537202380952  45.4380580357143 7.28236607142857  45.6891741071429 7.28236607142857  C 45.9402901785714 7.28236607142857  46.1495535714286 7.37537202380952  46.3169642857143 7.56138392857143  L 48.8560267857143 10.0725446428571  C 49.0234375 10.258556547619  49.1071428571429 10.4724702380952  49.1071428571429 10.7142857142857  Z M 49.7488839285714 5.60825892857143  C 49.9162946428571 5.77566964285715  50 5.98958333333333  50 6.25  C 50 6.51041666666666  49.9162946428571 6.72433035714286  49.7488839285714 6.89174107142857  C 49.5814732142857 7.05915178571428  49.3675595238095 7.14285714285715  49.1071428571429 7.14285714285715  L 46.4285714285714 7.14285714285715  C 46.1681547619048 7.14285714285715  45.9542410714286 7.05915178571428  45.7868303571429 6.89174107142857  C 45.6194196428572 6.72433035714286  45.5357142857143 6.51041666666666  45.5357142857143 6.25  C 45.5357142857143 5.98958333333333  45.6194196428572 5.77566964285715  45.7868303571429 5.60825892857143  C 45.9542410714286 5.44084821428572  46.1681547619048 5.35714285714286  46.4285714285714 5.35714285714286  L 49.1071428571429 5.35714285714286  C 49.3675595238095 5.35714285714286  49.5814732142857 5.44084821428572  49.7488839285714 5.60825892857143  Z M 44.3917410714286 0.25111607142857  C 44.5591517857143 0.418526785714285  44.6428571428571 0.632440476190471  44.6428571428571 0.892857142857145  L 44.6428571428571 3.57142857142857  C 44.6428571428571 3.83184523809524  44.5591517857143 4.04575892857143  44.3917410714286 4.21316964285715  C 44.2243303571429 4.38058035714286  44.0104166666667 4.46428571428572  43.75 4.46428571428572  C 43.4895833333333 4.46428571428572  43.2756696428572 4.38058035714286  43.1082589285714 4.21316964285715  C 42.9408482142857 4.04575892857143  42.8571428571429 3.83184523809524  42.8571428571429 3.57142857142857  L 42.8571428571429 0.892857142857145  C 42.8571428571429 0.632440476190471  42.9408482142857 0.418526785714285  43.1082589285714 0.25111607142857  C 43.2756696428572 0.0837053571428548  43.4895833333333 0  43.75 0  C 44.0104166666667 0  44.2243303571429 0.0837053571428548  44.3917410714286 0.25111607142857  Z M 49.1071428571429 1.78571428571428  C 49.1071428571429 2.02752976190476  49.0234375 2.24144345238095  48.8560267857143 2.42745535714286  L 46.3169642857143 4.93861607142857  C 46.1309523809524 5.12462797619047  45.9263392857143 5.21763392857143  45.703125 5.21763392857143  C 45.4613095238095 5.21763392857143  45.2473958333333 5.12462797619047  45.0613839285714 4.93861607142857  C 44.8753720238095 4.77120535714286  44.7823660714286 4.56194196428572  44.7823660714286 4.31082589285715  C 44.7823660714286 4.05970982142857  44.8753720238095 3.85044642857143  45.0613839285714 3.68303571428572  L 47.5725446428571 1.14397321428572  C 47.7585565476191 0.9765625  47.9724702380952 0.892857142857145  48.2142857142857 0.892857142857145  C 48.4561011904762 0.892857142857145  48.6700148809524 0.9765625  48.8560267857143 1.14397321428572  C 49.0234375 1.32998511904762  49.1071428571429 1.54389880952381  49.1071428571429 1.78571428571428  Z " fill-rule="nonzero" fill="#869daa" stroke="none" transform="matrix(1 0 0 1 161 249 )" />
  </g>
</svg>