<?xml version="1.0" encoding="utf-8"?>
<svg version="1.1" xmlns:xlink="http://www.w3.org/1999/xlink" width="39px" height="32px" xmlns="http://www.w3.org/2000/svg">
  <defs>
    <mask fill="white" id="clip6">
      <path d="M 15.36640625 14.5480769230769  C 16.5106770833333 13.4647435897436  17.8885416666667 12.9230769230769  19.5 12.9230769230769  C 21.1114583333333 12.9230769230769  22.4893229166667 13.4647435897436  23.63359375 14.5480769230769  C 24.7778645833333 15.6314102564103  25.35 16.9358974358974  25.35 18.4615384615385  C 25.35 19.9871794871795  24.7778645833333 21.2916666666667  23.63359375 22.375  C 22.4893229166667 23.4583333333333  21.1114583333333 24  19.5 24  C 17.8885416666667 24  16.5106770833333 23.4583333333333  15.36640625 22.375  C 14.2221354166667 21.2916666666667  13.65 19.9871794871795  13.65 18.4615384615385  C 13.65 16.9358974358974  14.2221354166667 15.6314102564103  15.36640625 14.5480769230769  Z M 29.25 4.92307692307692  L 33.8 4.92307692307692  C 35.2354166666667 4.92307692307692  36.4609375 5.40384615384615  37.4765625 6.36538461538462  C 38.4921875 7.32692307692308  39 8.48717948717949  39 9.84615384615385  L 39 27.0769230769231  C 39 28.4358974358974  38.4921875 29.5961538461538  37.4765625 30.5576923076923  C 36.4609375 31.5192307692308  35.2354166666667 32  33.8 32  L 5.2 32  C 3.76458333333333 32  2.5390625 31.5192307692308  1.5234375 30.5576923076923  C 0.5078125 29.5961538461538  0 28.4358974358974  0 27.0769230769231  L 0 9.84615384615385  C 0 8.48717948717949  0.5078125 7.32692307692308  1.5234375 6.36538461538462  C 2.5390625 5.40384615384615  3.76458333333333 4.92307692307692  5.2 4.92307692307692  L 9.75 4.92307692307692  L 10.7859375 2.30769230769231  C 11.0432291666667 1.67948717948718  11.5138020833333 1.13782051282051  12.19765625 0.682692307692307  C 12.8815104166667 0.227564102564106  13.5822916666667 0  14.3 0  L 24.7 0  C 25.4177083333333 0  26.1184895833333 0.227564102564106  26.80234375 0.682692307692307  C 27.4861979166667 1.13782051282051  27.9567708333333 1.67948717948718  28.2140625 2.30769230769231  L 29.25 4.92307692307692  Z M 13.07109375 24.5480769230769  C 14.8518229166667 26.2339743589744  16.9947916666667 27.0769230769231  19.5 27.0769230769231  C 22.0052083333333 27.0769230769231  24.1481770833333 26.2339743589744  25.92890625 24.5480769230769  C 27.7096354166667 22.8621794871795  28.6 20.8333333333333  28.6 18.4615384615385  C 28.6 16.0897435897436  27.7096354166667 14.0608974358974  25.92890625 12.375  C 24.1481770833333 10.6891025641026  22.0052083333333 9.84615384615385  19.5 9.84615384615385  C 16.9947916666667 9.84615384615385  14.8518229166667 10.6891025641026  13.07109375 12.375  C 11.2903645833333 14.0608974358974  10.4 16.0897435897436  10.4 18.4615384615385  C 10.4 20.8333333333333  11.2903645833333 22.8621794871795  13.07109375 24.5480769230769  Z " fill-rule="evenodd" />
    </mask>
  </defs>
  <g transform="matrix(1 0 0 1 -286 -764 )">
    <path d="M 15.36640625 14.5480769230769  C 16.5106770833333 13.4647435897436  17.8885416666667 12.9230769230769  19.5 12.9230769230769  C 21.1114583333333 12.9230769230769  22.4893229166667 13.4647435897436  23.63359375 14.5480769230769  C 24.7778645833333 15.6314102564103  25.35 16.9358974358974  25.35 18.4615384615385  C 25.35 19.9871794871795  24.7778645833333 21.2916666666667  23.63359375 22.375  C 22.4893229166667 23.4583333333333  21.1114583333333 24  19.5 24  C 17.8885416666667 24  16.5106770833333 23.4583333333333  15.36640625 22.375  C 14.2221354166667 21.2916666666667  13.65 19.9871794871795  13.65 18.4615384615385  C 13.65 16.9358974358974  14.2221354166667 15.6314102564103  15.36640625 14.5480769230769  Z M 29.25 4.92307692307692  L 33.8 4.92307692307692  C 35.2354166666667 4.92307692307692  36.4609375 5.40384615384615  37.4765625 6.36538461538462  C 38.4921875 7.32692307692308  39 8.48717948717949  39 9.84615384615385  L 39 27.0769230769231  C 39 28.4358974358974  38.4921875 29.5961538461538  37.4765625 30.5576923076923  C 36.4609375 31.5192307692308  35.2354166666667 32  33.8 32  L 5.2 32  C 3.76458333333333 32  2.5390625 31.5192307692308  1.5234375 30.5576923076923  C 0.5078125 29.5961538461538  0 28.4358974358974  0 27.0769230769231  L 0 9.84615384615385  C 0 8.48717948717949  0.5078125 7.32692307692308  1.5234375 6.36538461538462  C 2.5390625 5.40384615384615  3.76458333333333 4.92307692307692  5.2 4.92307692307692  L 9.75 4.92307692307692  L 10.7859375 2.30769230769231  C 11.0432291666667 1.67948717948718  11.5138020833333 1.13782051282051  12.19765625 0.682692307692307  C 12.8815104166667 0.227564102564106  13.5822916666667 0  14.3 0  L 24.7 0  C 25.4177083333333 0  26.1184895833333 0.227564102564106  26.80234375 0.682692307692307  C 27.4861979166667 1.13782051282051  27.9567708333333 1.67948717948718  28.2140625 2.30769230769231  L 29.25 4.92307692307692  Z M 13.07109375 24.5480769230769  C 14.8518229166667 26.2339743589744  16.9947916666667 27.0769230769231  19.5 27.0769230769231  C 22.0052083333333 27.0769230769231  24.1481770833333 26.2339743589744  25.92890625 24.5480769230769  C 27.7096354166667 22.8621794871795  28.6 20.8333333333333  28.6 18.4615384615385  C 28.6 16.0897435897436  27.7096354166667 14.0608974358974  25.92890625 12.375  C 24.1481770833333 10.6891025641026  22.0052083333333 9.84615384615385  19.5 9.84615384615385  C 16.9947916666667 9.84615384615385  14.8518229166667 10.6891025641026  13.07109375 12.375  C 11.2903645833333 14.0608974358974  10.4 16.0897435897436  10.4 18.4615384615385  C 10.4 20.8333333333333  11.2903645833333 22.8621794871795  13.07109375 24.5480769230769  Z " fill-rule="nonzero" fill="#f2f2f2" stroke="none" transform="matrix(1 0 0 1 286 764 )" />
    <path d="M 15.36640625 14.5480769230769  C 16.5106770833333 13.4647435897436  17.8885416666667 12.9230769230769  19.5 12.9230769230769  C 21.1114583333333 12.9230769230769  22.4893229166667 13.4647435897436  23.63359375 14.5480769230769  C 24.7778645833333 15.6314102564103  25.35 16.9358974358974  25.35 18.4615384615385  C 25.35 19.9871794871795  24.7778645833333 21.2916666666667  23.63359375 22.375  C 22.4893229166667 23.4583333333333  21.1114583333333 24  19.5 24  C 17.8885416666667 24  16.5106770833333 23.4583333333333  15.36640625 22.375  C 14.2221354166667 21.2916666666667  13.65 19.9871794871795  13.65 18.4615384615385  C 13.65 16.9358974358974  14.2221354166667 15.6314102564103  15.36640625 14.5480769230769  Z " stroke-width="2" stroke="#514e4e" fill="none" transform="matrix(1 0 0 1 286 764 )" mask="url(#clip6)" />
    <path d="M 29.25 4.92307692307692  L 33.8 4.92307692307692  C 35.2354166666667 4.92307692307692  36.4609375 5.40384615384615  37.4765625 6.36538461538462  C 38.4921875 7.32692307692308  39 8.48717948717949  39 9.84615384615385  L 39 27.0769230769231  C 39 28.4358974358974  38.4921875 29.5961538461538  37.4765625 30.5576923076923  C 36.4609375 31.5192307692308  35.2354166666667 32  33.8 32  L 5.2 32  C 3.76458333333333 32  2.5390625 31.5192307692308  1.5234375 30.5576923076923  C 0.5078125 29.5961538461538  0 28.4358974358974  0 27.0769230769231  L 0 9.84615384615385  C 0 8.48717948717949  0.5078125 7.32692307692308  1.5234375 6.36538461538462  C 2.5390625 5.40384615384615  3.76458333333333 4.92307692307692  5.2 4.92307692307692  L 9.75 4.92307692307692  L 10.7859375 2.30769230769231  C 11.0432291666667 1.67948717948718  11.5138020833333 1.13782051282051  12.19765625 0.682692307692307  C 12.8815104166667 0.227564102564106  13.5822916666667 0  14.3 0  L 24.7 0  C 25.4177083333333 0  26.1184895833333 0.227564102564106  26.80234375 0.682692307692307  C 27.4861979166667 1.13782051282051  27.9567708333333 1.67948717948718  28.2140625 2.30769230769231  L 29.25 4.92307692307692  Z " stroke-width="2" stroke="#514e4e" fill="none" transform="matrix(1 0 0 1 286 764 )" mask="url(#clip6)" />
    <path d="M 13.07109375 24.5480769230769  C 14.8518229166667 26.2339743589744  16.9947916666667 27.0769230769231  19.5 27.0769230769231  C 22.0052083333333 27.0769230769231  24.1481770833333 26.2339743589744  25.92890625 24.5480769230769  C 27.7096354166667 22.8621794871795  28.6 20.8333333333333  28.6 18.4615384615385  C 28.6 16.0897435897436  27.7096354166667 14.0608974358974  25.92890625 12.375  C 24.1481770833333 10.6891025641026  22.0052083333333 9.84615384615385  19.5 9.84615384615385  C 16.9947916666667 9.84615384615385  14.8518229166667 10.6891025641026  13.07109375 12.375  C 11.2903645833333 14.0608974358974  10.4 16.0897435897436  10.4 18.4615384615385  C 10.4 20.8333333333333  11.2903645833333 22.8621794871795  13.07109375 24.5480769230769  Z " stroke-width="2" stroke="#514e4e" fill="none" transform="matrix(1 0 0 1 286 764 )" mask="url(#clip6)" />
  </g>
</svg>