<?xml version="1.0" encoding="utf-8"?>
<svg version="1.1" xmlns:xlink="http://www.w3.org/1999/xlink" width="42px" height="32px" xmlns="http://www.w3.org/2000/svg">
  <defs>
    <mask fill="white" id="clip7">
      <path d="M 39.8571428571429 6.39583333333333  C 40.4957983193277 6.60416666666667  40.9915966386555 6.90277777777778  41.3445378151261 7.29166666666667  C 42.0168067226891 8.08333333333333  42.1680672268908 8.97916666666667  41.7983193277311 9.97916666666667  L 34.8655462184874 28.8541666666667  C 34.546218487395 29.7430555555556  33.9033613445378 30.4895833333333  32.936974789916 31.09375  C 31.9705882352941 31.6979166666667  30.9411764705882 32  29.8487394957983 32  L 6.57983193277311 32  C 5.28571428571429 32  4.03781512605042 31.6284722222222  2.83613445378151 30.8854166666667  C 1.63445378151261 30.1423611111111  0.798319327731093 29.2291666666667  0.327731092436975 28.1458333333333  C -0.0756302521008403 27.2152777777778  -0.092436974789916 26.3333333333333  0.277310924369748 25.5  C 0.277310924369748 25.4444444444444  0.302521008403361 25.2569444444444  0.352941176470588 24.9375  C 0.403361344537815 24.6180555555556  0.436974789915966 24.3611111111111  0.453781512605042 24.1666666666667  C 0.470588235294118 24.0555555555556  0.445378151260504 23.90625  0.378151260504202 23.71875  C 0.310924369747899 23.53125  0.285714285714286 23.3958333333333  0.302521008403361 23.3125  C 0.336134453781513 23.1597222222222  0.403361344537815 23.0138888888889  0.504201680672269 22.875  C 0.605042016806723 22.7361111111111  0.743697478991597 22.5729166666667  0.920168067226891 22.3854166666667  C 1.09663865546218 22.1979166666667  1.23529411764706 22.0347222222222  1.33613445378151 21.8958333333333  C 1.72268907563025 21.3680555555556  2.10084033613445 20.7326388888889  2.47058823529412 19.9895833333333  C 2.84033613445378 19.2465277777778  3.09243697478992 18.6111111111111  3.22689075630252 18.0833333333333  C 3.27731092436975 17.9444444444444  3.28151260504202 17.7361111111111  3.23949579831933 17.4583333333333  C 3.19747899159664 17.1805555555556  3.19327731092437 16.9861111111111  3.22689075630252 16.875  C 3.27731092436975 16.7222222222222  3.42016806722689 16.5277777777778  3.65546218487395 16.2916666666667  C 3.89075630252101 16.0555555555556  4.03361344537815 15.8958333333333  4.08403361344538 15.8125  C 4.43697478991597 15.3125  4.78991596638655 14.6736111111111  5.14285714285714 13.8958333333333  C 5.49579831932773 13.1180555555556  5.70588235294118 12.4930555555556  5.77310924369748 12.0208333333333  C 5.78991596638655 11.8958333333333  5.76890756302521 11.6736111111111  5.71008403361345 11.3541666666667  C 5.65126050420168 11.0347222222222  5.65546218487395 10.8402777777778  5.72268907563025 10.7708333333333  C 5.78991596638655 10.5902777777778  5.97478991596639 10.3784722222222  6.27731092436975 10.1354166666667  C 6.57983193277311 9.89236111111111  6.76470588235294 9.73611111111111  6.83193277310924 9.66666666666667  C 7.15126050420168 9.30555555555555  7.50840336134454 8.71875  7.90336134453782 7.90625  C 8.29831932773109 7.09375  8.52941176470588 6.42361111111111  8.59663865546218 5.89583333333333  C 8.61344537815126 5.78472222222222  8.58823529411765 5.60763888888889  8.52100840336134 5.36458333333333  C 8.45378151260504 5.12152777777778  8.43697478991597 4.9375  8.47058823529412 4.8125  C 8.50420168067227 4.70138888888889  8.57983193277311 4.57638888888889  8.69747899159664 4.4375  C 8.81512605042017 4.29861111111111  8.96638655462185 4.13888888888889  9.15126050420168 3.95833333333333  C 9.33613445378151 3.77777777777778  9.47899159663866 3.63194444444444  9.57983193277311 3.52083333333333  C 9.71428571428572 3.35416666666667  9.85294117647059 3.14236111111111  9.99579831932773 2.88541666666667  C 10.1386554621849 2.62847222222222  10.2647058823529 2.38541666666667  10.3739495798319 2.15625  C 10.4831932773109 1.92708333333333  10.6176470588235 1.67708333333333  10.7773109243697 1.40625  C 10.936974789916 1.13541666666667  11.1008403361345 0.913194444444443  11.2689075630252 0.739583333333332  C 11.436974789916 0.565972222222218  11.6596638655462 0.402777777777775  11.936974789916 0.25  C 12.2142857142857 0.0972222222222179  12.5168067226891 0.0173611111111107  12.8445378151261 0.0104166666666679  C 13.172268907563 0.00347222222221788  13.5714285714286 0.0416666666666679  14.0420168067227 0.125  L 14.0168067226891 0.1875  C 14.6554621848739 0.0625  15.0840336134454 0  15.3025210084034 0  L 34.4873949579832 0  C 35.7310924369748 0  36.6890756302521 0.388888888888886  37.3613445378151 1.16666666666667  C 38.0336134453782 1.94444444444444  38.1848739495798 2.84722222222222  37.8151260504202 3.875  L 30.9075630252101 22.75  C 30.3025210084034 24.4027777777778  29.7016806722689 25.46875  29.1050420168067 25.9479166666667  C 28.5084033613445 26.4270833333333  27.4285714285714 26.6666666666667  25.8655462184874 26.6666666666667  L 3.95798319327731 26.6666666666667  C 3.50420168067227 26.6666666666667  3.18487394957983 26.7708333333333  3 26.9791666666667  C 2.81512605042017 27.2013888888889  2.80672268907563 27.5  2.97478991596639 27.875  C 3.3781512605042 28.8472222222222  4.58823529411765 29.3333333333333  6.60504201680672 29  L 29.8739495798319 29  C 30.3613445378151 29.3333333333333  30.8319327731092 29.2256944444444  31.2857142857143 29.0104166666667  C 31.7394957983193 28.7951388888889  32.0336134453782 28.5069444444444  32.1680672268908 28.1458333333333  L 39.7310924369748 7.58333333333333  C 39.8487394957983 7.27777777777778  39.890756302521 6.88194444444444  39.8571428571429 6.39583333333333  Z M 15.0504201680672 6  L 14.5210084033613 7.33333333333333  C 14.453781512605 7.51388888888889  14.4705882352941 7.67013888888889  14.5714285714286 7.80208333333333  C 14.672268907563 7.93402777777778  14.8403361344538 8  15.0756302521008 8  L 30.4033613445378 8  C 30.6218487394958 8  30.8361344537815 7.93402777777778  31.046218487395 7.80208333333333  C 31.2563025210084 7.67013888888889  31.3949579831933 7.51388888888889  31.4621848739496 7.33333333333333  L 31.9915966386555 6  C 32.0588235294118 5.81944444444444  32.0420168067227 5.66319444444444  31.9411764705882 5.53125  C 31.8403361344538 5.39930555555555  31.672268907563 5.33333333333333  31.436974789916 5.33333333333333  L 16.109243697479 5.33333333333333  C 15.890756302521 5.33333333333333  15.6764705882353 5.39930555555555  15.4663865546218 5.53125  C 15.2563025210084 5.66319444444444  15.1176470588235 5.81944444444444  15.0504201680672 6  Z M 12.9579831932773 11.3333333333333  L 12.4285714285714 12.6666666666667  C 12.3613445378151 12.8472222222222  12.3781512605042 13.0034722222222  12.4789915966387 13.1354166666667  C 12.5798319327731 13.2673611111111  12.7478991596639 13.3333333333333  12.9831932773109 13.3333333333333  L 28.3109243697479 13.3333333333333  C 28.5294117647059 13.3333333333333  28.7436974789916 13.2673611111111  28.953781512605 13.1354166666667  C 29.1638655462185 13.0034722222222  29.3025210084034 12.8472222222222  29.3697478991597 12.6666666666667  L 29.8991596638655 11.3333333333333  C 29.9663865546218 11.1527777777778  29.9495798319328 10.9965277777778  29.8487394957983 10.8645833333333  C 29.7478991596639 10.7326388888889  29.5798319327731 10.6666666666667  29.344537815126 11  L 14.0168067226891 11  C 13.7983193277311 10.6666666666667  13.5840336134454 10.7326388888889  13.3739495798319 10.8645833333333  C 13.1638655462185 10.9965277777778  13.0252100840336 11.1527777777778  12.9579831932773 11.3333333333333  Z " fill-rule="evenodd" />
    </mask>
  </defs>
  <g transform="matrix(1 0 0 1 -421 -764 )">
    <path d="M 39.8571428571429 6.39583333333333  C 40.4957983193277 6.60416666666667  40.9915966386555 6.90277777777778  41.3445378151261 7.29166666666667  C 42.0168067226891 8.08333333333333  42.1680672268908 8.97916666666667  41.7983193277311 9.97916666666667  L 34.8655462184874 28.8541666666667  C 34.546218487395 29.7430555555556  33.9033613445378 30.4895833333333  32.936974789916 31.09375  C 31.9705882352941 31.6979166666667  30.9411764705882 32  29.8487394957983 32  L 6.57983193277311 32  C 5.28571428571429 32  4.03781512605042 31.6284722222222  2.83613445378151 30.8854166666667  C 1.63445378151261 30.1423611111111  0.798319327731093 29.2291666666667  0.327731092436975 28.1458333333333  C -0.0756302521008403 27.2152777777778  -0.092436974789916 26.3333333333333  0.277310924369748 25.5  C 0.277310924369748 25.4444444444444  0.302521008403361 25.2569444444444  0.352941176470588 24.9375  C 0.403361344537815 24.6180555555556  0.436974789915966 24.3611111111111  0.453781512605042 24.1666666666667  C 0.470588235294118 24.0555555555556  0.445378151260504 23.90625  0.378151260504202 23.71875  C 0.310924369747899 23.53125  0.285714285714286 23.3958333333333  0.302521008403361 23.3125  C 0.336134453781513 23.1597222222222  0.403361344537815 23.0138888888889  0.504201680672269 22.875  C 0.605042016806723 22.7361111111111  0.743697478991597 22.5729166666667  0.920168067226891 22.3854166666667  C 1.09663865546218 22.1979166666667  1.23529411764706 22.0347222222222  1.33613445378151 21.8958333333333  C 1.72268907563025 21.3680555555556  2.10084033613445 20.7326388888889  2.47058823529412 19.9895833333333  C 2.84033613445378 19.2465277777778  3.09243697478992 18.6111111111111  3.22689075630252 18.0833333333333  C 3.27731092436975 17.9444444444444  3.28151260504202 17.7361111111111  3.23949579831933 17.4583333333333  C 3.19747899159664 17.1805555555556  3.19327731092437 16.9861111111111  3.22689075630252 16.875  C 3.27731092436975 16.7222222222222  3.42016806722689 16.5277777777778  3.65546218487395 16.2916666666667  C 3.89075630252101 16.0555555555556  4.03361344537815 15.8958333333333  4.08403361344538 15.8125  C 4.43697478991597 15.3125  4.78991596638655 14.6736111111111  5.14285714285714 13.8958333333333  C 5.49579831932773 13.1180555555556  5.70588235294118 12.4930555555556  5.77310924369748 12.0208333333333  C 5.78991596638655 11.8958333333333  5.76890756302521 11.6736111111111  5.71008403361345 11.3541666666667  C 5.65126050420168 11.0347222222222  5.65546218487395 10.8402777777778  5.72268907563025 10.7708333333333  C 5.78991596638655 10.5902777777778  5.97478991596639 10.3784722222222  6.27731092436975 10.1354166666667  C 6.57983193277311 9.89236111111111  6.76470588235294 9.73611111111111  6.83193277310924 9.66666666666667  C 7.15126050420168 9.30555555555555  7.50840336134454 8.71875  7.90336134453782 7.90625  C 8.29831932773109 7.09375  8.52941176470588 6.42361111111111  8.59663865546218 5.89583333333333  C 8.61344537815126 5.78472222222222  8.58823529411765 5.60763888888889  8.52100840336134 5.36458333333333  C 8.45378151260504 5.12152777777778  8.43697478991597 4.9375  8.47058823529412 4.8125  C 8.50420168067227 4.70138888888889  8.57983193277311 4.57638888888889  8.69747899159664 4.4375  C 8.81512605042017 4.29861111111111  8.96638655462185 4.13888888888889  9.15126050420168 3.95833333333333  C 9.33613445378151 3.77777777777778  9.47899159663866 3.63194444444444  9.57983193277311 3.52083333333333  C 9.71428571428572 3.35416666666667  9.85294117647059 3.14236111111111  9.99579831932773 2.88541666666667  C 10.1386554621849 2.62847222222222  10.2647058823529 2.38541666666667  10.3739495798319 2.15625  C 10.4831932773109 1.92708333333333  10.6176470588235 1.67708333333333  10.7773109243697 1.40625  C 10.936974789916 1.13541666666667  11.1008403361345 0.913194444444443  11.2689075630252 0.739583333333332  C 11.436974789916 0.565972222222218  11.6596638655462 0.402777777777775  11.936974789916 0.25  C 12.2142857142857 0.0972222222222179  12.5168067226891 0.0173611111111107  12.8445378151261 0.0104166666666679  C 13.172268907563 0.00347222222221788  13.5714285714286 0.0416666666666679  14.0420168067227 0.125  L 14.0168067226891 0.1875  C 14.6554621848739 0.0625  15.0840336134454 0  15.3025210084034 0  L 34.4873949579832 0  C 35.7310924369748 0  36.6890756302521 0.388888888888886  37.3613445378151 1.16666666666667  C 38.0336134453782 1.94444444444444  38.1848739495798 2.84722222222222  37.8151260504202 3.875  L 30.9075630252101 22.75  C 30.3025210084034 24.4027777777778  29.7016806722689 25.46875  29.1050420168067 25.9479166666667  C 28.5084033613445 26.4270833333333  27.4285714285714 26.6666666666667  25.8655462184874 26.6666666666667  L 3.95798319327731 26.6666666666667  C 3.50420168067227 26.6666666666667  3.18487394957983 26.7708333333333  3 26.9791666666667  C 2.81512605042017 27.2013888888889  2.80672268907563 27.5  2.97478991596639 27.875  C 3.3781512605042 28.8472222222222  4.58823529411765 29.3333333333333  6.60504201680672 29  L 29.8739495798319 29  C 30.3613445378151 29.3333333333333  30.8319327731092 29.2256944444444  31.2857142857143 29.0104166666667  C 31.7394957983193 28.7951388888889  32.0336134453782 28.5069444444444  32.1680672268908 28.1458333333333  L 39.7310924369748 7.58333333333333  C 39.8487394957983 7.27777777777778  39.890756302521 6.88194444444444  39.8571428571429 6.39583333333333  Z M 15.0504201680672 6  L 14.5210084033613 7.33333333333333  C 14.453781512605 7.51388888888889  14.4705882352941 7.67013888888889  14.5714285714286 7.80208333333333  C 14.672268907563 7.93402777777778  14.8403361344538 8  15.0756302521008 8  L 30.4033613445378 8  C 30.6218487394958 8  30.8361344537815 7.93402777777778  31.046218487395 7.80208333333333  C 31.2563025210084 7.67013888888889  31.3949579831933 7.51388888888889  31.4621848739496 7.33333333333333  L 31.9915966386555 6  C 32.0588235294118 5.81944444444444  32.0420168067227 5.66319444444444  31.9411764705882 5.53125  C 31.8403361344538 5.39930555555555  31.672268907563 5.33333333333333  31.436974789916 5.33333333333333  L 16.109243697479 5.33333333333333  C 15.890756302521 5.33333333333333  15.6764705882353 5.39930555555555  15.4663865546218 5.53125  C 15.2563025210084 5.66319444444444  15.1176470588235 5.81944444444444  15.0504201680672 6  Z M 12.9579831932773 11.3333333333333  L 12.4285714285714 12.6666666666667  C 12.3613445378151 12.8472222222222  12.3781512605042 13.0034722222222  12.4789915966387 13.1354166666667  C 12.5798319327731 13.2673611111111  12.7478991596639 13.3333333333333  12.9831932773109 13.3333333333333  L 28.3109243697479 13.3333333333333  C 28.5294117647059 13.3333333333333  28.7436974789916 13.2673611111111  28.953781512605 13.1354166666667  C 29.1638655462185 13.0034722222222  29.3025210084034 12.8472222222222  29.3697478991597 12.6666666666667  L 29.8991596638655 11.3333333333333  C 29.9663865546218 11.1527777777778  29.9495798319328 10.9965277777778  29.8487394957983 10.8645833333333  C 29.7478991596639 10.7326388888889  29.5798319327731 10.6666666666667  29.344537815126 11  L 14.0168067226891 11  C 13.7983193277311 10.6666666666667  13.5840336134454 10.7326388888889  13.3739495798319 10.8645833333333  C 13.1638655462185 10.9965277777778  13.0252100840336 11.1527777777778  12.9579831932773 11.3333333333333  Z " fill-rule="nonzero" fill="#f2f2f2" stroke="none" transform="matrix(1 0 0 1 421 764 )" />
    <path d="M 39.8571428571429 6.39583333333333  C 40.4957983193277 6.60416666666667  40.9915966386555 6.90277777777778  41.3445378151261 7.29166666666667  C 42.0168067226891 8.08333333333333  42.1680672268908 8.97916666666667  41.7983193277311 9.97916666666667  L 34.8655462184874 28.8541666666667  C 34.546218487395 29.7430555555556  33.9033613445378 30.4895833333333  32.936974789916 31.09375  C 31.9705882352941 31.6979166666667  30.9411764705882 32  29.8487394957983 32  L 6.57983193277311 32  C 5.28571428571429 32  4.03781512605042 31.6284722222222  2.83613445378151 30.8854166666667  C 1.63445378151261 30.1423611111111  0.798319327731093 29.2291666666667  0.327731092436975 28.1458333333333  C -0.0756302521008403 27.2152777777778  -0.092436974789916 26.3333333333333  0.277310924369748 25.5  C 0.277310924369748 25.4444444444444  0.302521008403361 25.2569444444444  0.352941176470588 24.9375  C 0.403361344537815 24.6180555555556  0.436974789915966 24.3611111111111  0.453781512605042 24.1666666666667  C 0.470588235294118 24.0555555555556  0.445378151260504 23.90625  0.378151260504202 23.71875  C 0.310924369747899 23.53125  0.285714285714286 23.3958333333333  0.302521008403361 23.3125  C 0.336134453781513 23.1597222222222  0.403361344537815 23.0138888888889  0.504201680672269 22.875  C 0.605042016806723 22.7361111111111  0.743697478991597 22.5729166666667  0.920168067226891 22.3854166666667  C 1.09663865546218 22.1979166666667  1.23529411764706 22.0347222222222  1.33613445378151 21.8958333333333  C 1.72268907563025 21.3680555555556  2.10084033613445 20.7326388888889  2.47058823529412 19.9895833333333  C 2.84033613445378 19.2465277777778  3.09243697478992 18.6111111111111  3.22689075630252 18.0833333333333  C 3.27731092436975 17.9444444444444  3.28151260504202 17.7361111111111  3.23949579831933 17.4583333333333  C 3.19747899159664 17.1805555555556  3.19327731092437 16.9861111111111  3.22689075630252 16.875  C 3.27731092436975 16.7222222222222  3.42016806722689 16.5277777777778  3.65546218487395 16.2916666666667  C 3.89075630252101 16.0555555555556  4.03361344537815 15.8958333333333  4.08403361344538 15.8125  C 4.43697478991597 15.3125  4.78991596638655 14.6736111111111  5.14285714285714 13.8958333333333  C 5.49579831932773 13.1180555555556  5.70588235294118 12.4930555555556  5.77310924369748 12.0208333333333  C 5.78991596638655 11.8958333333333  5.76890756302521 11.6736111111111  5.71008403361345 11.3541666666667  C 5.65126050420168 11.0347222222222  5.65546218487395 10.8402777777778  5.72268907563025 10.7708333333333  C 5.78991596638655 10.5902777777778  5.97478991596639 10.3784722222222  6.27731092436975 10.1354166666667  C 6.57983193277311 9.89236111111111  6.76470588235294 9.73611111111111  6.83193277310924 9.66666666666667  C 7.15126050420168 9.30555555555555  7.50840336134454 8.71875  7.90336134453782 7.90625  C 8.29831932773109 7.09375  8.52941176470588 6.42361111111111  8.59663865546218 5.89583333333333  C 8.61344537815126 5.78472222222222  8.58823529411765 5.60763888888889  8.52100840336134 5.36458333333333  C 8.45378151260504 5.12152777777778  8.43697478991597 4.9375  8.47058823529412 4.8125  C 8.50420168067227 4.70138888888889  8.57983193277311 4.57638888888889  8.69747899159664 4.4375  C 8.81512605042017 4.29861111111111  8.96638655462185 4.13888888888889  9.15126050420168 3.95833333333333  C 9.33613445378151 3.77777777777778  9.47899159663866 3.63194444444444  9.57983193277311 3.52083333333333  C 9.71428571428572 3.35416666666667  9.85294117647059 3.14236111111111  9.99579831932773 2.88541666666667  C 10.1386554621849 2.62847222222222  10.2647058823529 2.38541666666667  10.3739495798319 2.15625  C 10.4831932773109 1.92708333333333  10.6176470588235 1.67708333333333  10.7773109243697 1.40625  C 10.936974789916 1.13541666666667  11.1008403361345 0.913194444444443  11.2689075630252 0.739583333333332  C 11.436974789916 0.565972222222218  11.6596638655462 0.402777777777775  11.936974789916 0.25  C 12.2142857142857 0.0972222222222179  12.5168067226891 0.0173611111111107  12.8445378151261 0.0104166666666679  C 13.172268907563 0.00347222222221788  13.5714285714286 0.0416666666666679  14.0420168067227 0.125  L 14.0168067226891 0.1875  C 14.6554621848739 0.0625  15.0840336134454 0  15.3025210084034 0  L 34.4873949579832 0  C 35.7310924369748 0  36.6890756302521 0.388888888888886  37.3613445378151 1.16666666666667  C 38.0336134453782 1.94444444444444  38.1848739495798 2.84722222222222  37.8151260504202 3.875  L 30.9075630252101 22.75  C 30.3025210084034 24.4027777777778  29.7016806722689 25.46875  29.1050420168067 25.9479166666667  C 28.5084033613445 26.4270833333333  27.4285714285714 26.6666666666667  25.8655462184874 26.6666666666667  L 3.95798319327731 26.6666666666667  C 3.50420168067227 26.6666666666667  3.18487394957983 26.7708333333333  3 26.9791666666667  C 2.81512605042017 27.2013888888889  2.80672268907563 27.5  2.97478991596639 27.875  C 3.3781512605042 28.8472222222222  4.58823529411765 29.3333333333333  6.60504201680672 29  L 29.8739495798319 29  C 30.3613445378151 29.3333333333333  30.8319327731092 29.2256944444444  31.2857142857143 29.0104166666667  C 31.7394957983193 28.7951388888889  32.0336134453782 28.5069444444444  32.1680672268908 28.1458333333333  L 39.7310924369748 7.58333333333333  C 39.8487394957983 7.27777777777778  39.890756302521 6.88194444444444  39.8571428571429 6.39583333333333  Z " stroke-width="2" stroke="#514e4e" fill="none" transform="matrix(1 0 0 1 421 764 )" mask="url(#clip7)" />
    <path d="M 15.0504201680672 6  L 14.5210084033613 7.33333333333333  C 14.453781512605 7.51388888888889  14.4705882352941 7.67013888888889  14.5714285714286 7.80208333333333  C 14.672268907563 7.93402777777778  14.8403361344538 8  15.0756302521008 8  L 30.4033613445378 8  C 30.6218487394958 8  30.8361344537815 7.93402777777778  31.046218487395 7.80208333333333  C 31.2563025210084 7.67013888888889  31.3949579831933 7.51388888888889  31.4621848739496 7.33333333333333  L 31.9915966386555 6  C 32.0588235294118 5.81944444444444  32.0420168067227 5.66319444444444  31.9411764705882 5.53125  C 31.8403361344538 5.39930555555555  31.672268907563 5.33333333333333  31.436974789916 5.33333333333333  L 16.109243697479 5.33333333333333  C 15.890756302521 5.33333333333333  15.6764705882353 5.39930555555555  15.4663865546218 5.53125  C 15.2563025210084 5.66319444444444  15.1176470588235 5.81944444444444  15.0504201680672 6  Z " stroke-width="2" stroke="#514e4e" fill="none" transform="matrix(1 0 0 1 421 764 )" mask="url(#clip7)" />
    <path d="M 12.9579831932773 11.3333333333333  L 12.4285714285714 12.6666666666667  C 12.3613445378151 12.8472222222222  12.3781512605042 13.0034722222222  12.4789915966387 13.1354166666667  C 12.5798319327731 13.2673611111111  12.7478991596639 13.3333333333333  12.9831932773109 13.3333333333333  L 28.3109243697479 13.3333333333333  C 28.5294117647059 13.3333333333333  28.7436974789916 13.2673611111111  28.953781512605 13.1354166666667  C 29.1638655462185 13.0034722222222  29.3025210084034 12.8472222222222  29.3697478991597 12.6666666666667  L 29.8991596638655 11.3333333333333  C 29.9663865546218 11.1527777777778  29.9495798319328 10.9965277777778  29.8487394957983 10.8645833333333  C 29.7478991596639 10.7326388888889  29.5798319327731 10.6666666666667  29.344537815126 11  L 14.0168067226891 11  C 13.7983193277311 10.6666666666667  13.5840336134454 10.7326388888889  13.3739495798319 10.8645833333333  C 13.1638655462185 10.9965277777778  13.0252100840336 11.1527777777778  12.9579831932773 11.3333333333333  Z " stroke-width="2" stroke="#514e4e" fill="none" transform="matrix(1 0 0 1 421 764 )" mask="url(#clip7)" />
  </g>
</svg>