<?xml version="1.0" encoding="utf-8"?>
<svg version="1.1" xmlns:xlink="http://www.w3.org/1999/xlink" width="31px" height="35px" xmlns="http://www.w3.org/2000/svg">
  <defs>
    <mask fill="white" id="clip8">
      <path d="M 31 6.94152227722772  C 31 7.5118605610561  30.7488425925926 7.99917491749175  30.2465277777778 8.40346534653465  L 22 14.7277227722772  L 22 32.5742574257426  C 22.3888888888889 33.2384488448845  22.0928819444444 33.8087871287129  21.5008680555556 34.2852722772277  C 20.9088541666667 34.7617574257426  20.2002314814815 35  19.375 35  C 18.5497685185185 35  17.8411458333333 34.7617574257426  17.2491319444444 34.2852722772277  C 16.6571180555556 33.8087871287129  16.3611111111111 33.2384488448845  16.3611111111111 32.5742574257426  L 16.3611111111111 24.2574257425743  L 14.6388888888889 24.2574257425743  L 14.6388888888889 32.5742574257426  C 14.6388888888889 33.2384488448845  14.3428819444444 33.8087871287129  13.7508680555556 34.2852722772277  C 13.1588541666667 34.7617574257426  12.4502314814815 35  11.625 35  C 10.7997685185185 35  10.0911458333333 34.7617574257426  9.49913194444444 34.2852722772277  C 8.90711805555556 33.8087871287129  8.61111111111111 33.2384488448845  9 32.5742574257426  L 9 14.7277227722772  L 0.753472222222222 8.40346534653465  C 0.251157407407408 7.99917491749175  0 7.50825082508251  0 6.93069306930693  C 0 6.35313531353135  0.251157407407408 5.86221122112211  0.753472222222222 5.45792079207921  C 1.27372685185185 5.0536303630363  1.88816550925926 4.85148514851485  2.59678819444444 4.85148514851485  C 3.30541087962963 4.85148514851485  3.91087962962963 5.0536303630363  4.41319444444444 5.45792079207921  L 10.5486111111111 10.3960396039604  L 20.4513888888889 10.3960396039604  L 26.5868055555556 5.45792079207921  C 27.0891203703704 5.0536303630363  27.6990740740741 4.85148514851485  28.4166666666667 4.85148514851485  C 29.1342592592593 4.85148514851485  29.744212962963 5.0536303630363  30.2465277777778 5.45792079207921  C 30.7488425925926 5.8766501650165  31 6.37118399339934  31 6.94152227722772  Z M 19.7651909722222 1.41862623762376  C 20.9402488425926 2.36437706270627  21.5277777777778 3.50866336633663  21.5277777777778 4.85148514851485  C 21.5277777777778 6.19430693069307  20.9402488425926 7.33859323432343  19.7651909722222 8.28434405940594  C 18.5901331018519 9.23009488448844  17.1684027777778 9.7029702970297  15.5 9.7029702970297  C 13.8315972222222 9.7029702970297  12.4098668981482 9.23009488448844  11.2348090277778 8.28434405940594  C 10.0597511574074 7.33859323432343  9.47222222222222 6.19430693069307  9.47222222222222 4.85148514851485  C 9.47222222222222 3.50866336633663  10.0597511574074 2.36437706270627  11.2348090277778 1.41862623762376  C 12.4098668981482 0.472875412541251  13.8315972222222 0  15.5 0  C 17.1684027777778 0  18.5901331018519 0.472875412541251  19.7651909722222 1.41862623762376  Z " fill-rule="evenodd" />
    </mask>
  </defs>
  <g transform="matrix(1 0 0 1 -553 -761 )">
    <path d="M 31 6.94152227722772  C 31 7.5118605610561  30.7488425925926 7.99917491749175  30.2465277777778 8.40346534653465  L 22 14.7277227722772  L 22 32.5742574257426  C 22.3888888888889 33.2384488448845  22.0928819444444 33.8087871287129  21.5008680555556 34.2852722772277  C 20.9088541666667 34.7617574257426  20.2002314814815 35  19.375 35  C 18.5497685185185 35  17.8411458333333 34.7617574257426  17.2491319444444 34.2852722772277  C 16.6571180555556 33.8087871287129  16.3611111111111 33.2384488448845  16.3611111111111 32.5742574257426  L 16.3611111111111 24.2574257425743  L 14.6388888888889 24.2574257425743  L 14.6388888888889 32.5742574257426  C 14.6388888888889 33.2384488448845  14.3428819444444 33.8087871287129  13.7508680555556 34.2852722772277  C 13.1588541666667 34.7617574257426  12.4502314814815 35  11.625 35  C 10.7997685185185 35  10.0911458333333 34.7617574257426  9.49913194444444 34.2852722772277  C 8.90711805555556 33.8087871287129  8.61111111111111 33.2384488448845  9 32.5742574257426  L 9 14.7277227722772  L 0.753472222222222 8.40346534653465  C 0.251157407407408 7.99917491749175  0 7.50825082508251  0 6.93069306930693  C 0 6.35313531353135  0.251157407407408 5.86221122112211  0.753472222222222 5.45792079207921  C 1.27372685185185 5.0536303630363  1.88816550925926 4.85148514851485  2.59678819444444 4.85148514851485  C 3.30541087962963 4.85148514851485  3.91087962962963 5.0536303630363  4.41319444444444 5.45792079207921  L 10.5486111111111 10.3960396039604  L 20.4513888888889 10.3960396039604  L 26.5868055555556 5.45792079207921  C 27.0891203703704 5.0536303630363  27.6990740740741 4.85148514851485  28.4166666666667 4.85148514851485  C 29.1342592592593 4.85148514851485  29.744212962963 5.0536303630363  30.2465277777778 5.45792079207921  C 30.7488425925926 5.8766501650165  31 6.37118399339934  31 6.94152227722772  Z M 19.7651909722222 1.41862623762376  C 20.9402488425926 2.36437706270627  21.5277777777778 3.50866336633663  21.5277777777778 4.85148514851485  C 21.5277777777778 6.19430693069307  20.9402488425926 7.33859323432343  19.7651909722222 8.28434405940594  C 18.5901331018519 9.23009488448844  17.1684027777778 9.7029702970297  15.5 9.7029702970297  C 13.8315972222222 9.7029702970297  12.4098668981482 9.23009488448844  11.2348090277778 8.28434405940594  C 10.0597511574074 7.33859323432343  9.47222222222222 6.19430693069307  9.47222222222222 4.85148514851485  C 9.47222222222222 3.50866336633663  10.0597511574074 2.36437706270627  11.2348090277778 1.41862623762376  C 12.4098668981482 0.472875412541251  13.8315972222222 0  15.5 0  C 17.1684027777778 0  18.5901331018519 0.472875412541251  19.7651909722222 1.41862623762376  Z " fill-rule="nonzero" fill="#f2f2f2" stroke="none" transform="matrix(1 0 0 1 553 761 )" />
    <path d="M 31 6.94152227722772  C 31 7.5118605610561  30.7488425925926 7.99917491749175  30.2465277777778 8.40346534653465  L 22 14.7277227722772  L 22 32.5742574257426  C 22.3888888888889 33.2384488448845  22.0928819444444 33.8087871287129  21.5008680555556 34.2852722772277  C 20.9088541666667 34.7617574257426  20.2002314814815 35  19.375 35  C 18.5497685185185 35  17.8411458333333 34.7617574257426  17.2491319444444 34.2852722772277  C 16.6571180555556 33.8087871287129  16.3611111111111 33.2384488448845  16.3611111111111 32.5742574257426  L 16.3611111111111 24.2574257425743  L 14.6388888888889 24.2574257425743  L 14.6388888888889 32.5742574257426  C 14.6388888888889 33.2384488448845  14.3428819444444 33.8087871287129  13.7508680555556 34.2852722772277  C 13.1588541666667 34.7617574257426  12.4502314814815 35  11.625 35  C 10.7997685185185 35  10.0911458333333 34.7617574257426  9.49913194444444 34.2852722772277  C 8.90711805555556 33.8087871287129  8.61111111111111 33.2384488448845  9 32.5742574257426  L 9 14.7277227722772  L 0.753472222222222 8.40346534653465  C 0.251157407407408 7.99917491749175  0 7.50825082508251  0 6.93069306930693  C 0 6.35313531353135  0.251157407407408 5.86221122112211  0.753472222222222 5.45792079207921  C 1.27372685185185 5.0536303630363  1.88816550925926 4.85148514851485  2.59678819444444 4.85148514851485  C 3.30541087962963 4.85148514851485  3.91087962962963 5.0536303630363  4.41319444444444 5.45792079207921  L 10.5486111111111 10.3960396039604  L 20.4513888888889 10.3960396039604  L 26.5868055555556 5.45792079207921  C 27.0891203703704 5.0536303630363  27.6990740740741 4.85148514851485  28.4166666666667 4.85148514851485  C 29.1342592592593 4.85148514851485  29.744212962963 5.0536303630363  30.2465277777778 5.45792079207921  C 30.7488425925926 5.8766501650165  31 6.37118399339934  31 6.94152227722772  Z " stroke-width="2" stroke="#514e4e" fill="none" transform="matrix(1 0 0 1 553 761 )" mask="url(#clip8)" />
    <path d="M 19.7651909722222 1.41862623762376  C 20.9402488425926 2.36437706270627  21.5277777777778 3.50866336633663  21.5277777777778 4.85148514851485  C 21.5277777777778 6.19430693069307  20.9402488425926 7.33859323432343  19.7651909722222 8.28434405940594  C 18.5901331018519 9.23009488448844  17.1684027777778 9.7029702970297  15.5 9.7029702970297  C 13.8315972222222 9.7029702970297  12.4098668981482 9.23009488448844  11.2348090277778 8.28434405940594  C 10.0597511574074 7.33859323432343  9.47222222222222 6.19430693069307  9.47222222222222 4.85148514851485  C 9.47222222222222 3.50866336633663  10.0597511574074 2.36437706270627  11.2348090277778 1.41862623762376  C 12.4098668981482 0.472875412541251  13.8315972222222 0  15.5 0  C 17.1684027777778 0  18.5901331018519 0.472875412541251  19.7651909722222 1.41862623762376  Z " stroke-width="2" stroke="#514e4e" fill="none" transform="matrix(1 0 0 1 553 761 )" mask="url(#clip8)" />
  </g>
</svg>