<?xml version="1.0" encoding="utf-8"?>
<svg version="1.1" xmlns:xlink="http://www.w3.org/1999/xlink" width="79px" height="68px" xmlns="http://www.w3.org/2000/svg">
  <g transform="matrix(1 0 0 1 -394 -284 )">
    <path d="M 31.1268229166667 30.9146634615385  C 33.4447048611111 28.6125801282051  36.2357638888889 27.4615384615385  39.5 27.4615384615385  C 42.7642361111111 27.4615384615385  45.5552951388889 28.6125801282051  47.8731770833333 30.9146634615385  C 50.1910590277778 33.2167467948718  51.35 35.9887820512821  51.35 39.2307692307692  C 51.35 42.4727564102564  50.1910590277778 45.2447916666667  47.8731770833333 47.546875  C 45.5552951388889 49.8489583333333  42.7642361111111 51  39.5 51  C 36.2357638888889 51  33.4447048611111 49.8489583333333  31.1268229166667 47.546875  C 28.8089409722222 45.2447916666667  27.65 42.4727564102564  27.65 39.2307692307692  C 27.65 35.9887820512821  28.8089409722222 33.2167467948718  31.1268229166667 30.9146634615385  Z M 59.25 10.4615384615385  L 68.4666666666667 10.4615384615385  C 71.3743055555556 10.4615384615385  73.8567708333333 11.4831730769231  75.9140625 13.5264423076923  C 77.9713541666667 15.5697115384615  79 18.0352564102564  79 20.9230769230769  L 79 57.5384615384615  C 79 60.4262820512821  77.9713541666667 62.8918269230769  75.9140625 64.9350961538461  C 73.8567708333333 66.9783653846154  71.3743055555556 68  68.4666666666667 68  L 10.5333333333333 68  C 7.62569444444445 68  5.14322916666667 66.9783653846154  3.0859375 64.9350961538461  C 1.02864583333333 62.8918269230769  0 60.4262820512821  0 57.5384615384615  L 0 20.9230769230769  C 0 18.0352564102564  1.02864583333333 15.5697115384615  3.0859375 13.5264423076923  C 5.14322916666667 11.4831730769231  7.62569444444445 10.4615384615385  10.5333333333333 10.4615384615385  L 19.75 10.4615384615385  L 21.8484375 4.90384615384615  C 22.3696180555556 3.56891025641026  23.3228298611111 2.41786858974359  24.7080729166667 1.45072115384615  C 26.0933159722222 0.483573717948725  27.5128472222222 0  28.9666666666667 0  L 50.0333333333333 0  C 51.4871527777778 0  52.9066840277778 0.483573717948725  54.2919270833333 1.45072115384615  C 55.6771701388889 2.41786858974359  56.6303819444444 3.56891025641026  57.1515625 4.90384615384615  L 59.25 10.4615384615385  Z M 26.47734375 52.1646634615385  C 30.0844618055556 55.7471955128205  34.4253472222222 57.5384615384615  39.5 57.5384615384615  C 44.5746527777778 57.5384615384615  48.9155381944444 55.7471955128205  52.52265625 52.1646634615385  C 56.1297743055556 48.5821314102564  57.9333333333333 44.2708333333333  57.9333333333333 39.2307692307692  C 57.9333333333333 34.1907051282051  56.1297743055556 29.879407051282  52.52265625 26.296875  C 48.9155381944444 22.7143429487179  44.5746527777778 20.9230769230769  39.5 20.9230769230769  C 34.4253472222222 20.9230769230769  30.0844618055556 22.7143429487179  26.47734375 26.296875  C 22.8702256944444 29.879407051282  21.0666666666667 34.1907051282051  21.0666666666667 39.2307692307692  C 21.0666666666667 44.2708333333333  22.8702256944444 48.5821314102564  26.47734375 52.1646634615385  Z " fill-rule="nonzero" fill="#869daa" stroke="none" transform="matrix(1 0 0 1 394 284 )" />
  </g>
</svg>