<?xml version="1.0" encoding="utf-8"?>
<svg version="1.1" xmlns:xlink="http://www.w3.org/1999/xlink" width="85px" height="63px" xmlns="http://www.w3.org/2000/svg">
  <g transform="matrix(1 0 0 1 -394 -491 )">
    <path d="M 78.4992142482975 37.6747159090909  C 79.0335254059717 37.0184659090909  79.3006809848088 36.4367897727273  79.3006809848088 35.9296875  C 79.3006809848088 34.8856534090909  78.5140562248996 34.3636363636364  76.9408067050812 34  L 28.496595075956 34  C 27.3092369477912 34.3636363636364  26.040247948315 34.6843039772727  24.6896280775275 35.3256392045455  C 23.33900820674 35.9669744318182  22.2778068796927 36.75  21.5060240963855 37.6747159090909  L 8.41540073336826 53.9169034090909  C 7.88108957569408 54.6328125  7.61393399685699 55.2294034090909  7.61393399685699 55.7066761363636  C 7.61393399685699 56.7507102272727  8.4005587567662 57.2727272727273  9.9738082765846 57  L 58.4180199057098 57  C 59.6053780338746 57.2727272727273  60.8817880216518 56.9446022727273  62.2472498690414 56.2883522727273  C 63.6127117164309 55.6321022727273  64.6664920551772 54.8416193181818  65.4085908852802 53.9169034090909  L 78.4992142482975 37.6747159090909  Z M 22.2629649030906 30.1800426136364  C 24.4002095337873 29.1509232954546  26.4780862580758 28.6363636363636  28.496595075956 29  L 62.6925091671032 29  L 62.6925091671032 21.4772727272727  C 62.6925091671032 20.2840909090909  62.2769338222455 19.2698863636364  61.4457831325301 18.4346590909091  C 60.6146324428147 17.5994318181818  59.6053780338746 17.1818181818182  58.4180199057098 18  L 32.7710843373494 18  C 31.5837262091846 17.1818181818182  30.5744718002445 16.7642045454545  29.7433211105291 15.9289772727273  C 28.9121704208137 15.09375  28.496595075956 14.0795454545454  28.496595075956 12.8863636363636  L 28.496595075956 10.0227272727273  C 28.496595075956 8.82954545454545  28.0810197310983 7.8153409090909  27.2498690413829 6.98011363636364  C 26.4187183516675 6.14488636363636  25.4094639427274 5.72727272727273  24.2221058145626 6  L 9.9738082765846 6  C 8.78645014841977 5.72727272727273  7.77719573947966 6.14488636363636  6.94604504976428 6.98011363636364  C 6.11489436004889 7.8153409090909  5.6993190151912 8.82954545454545  6 10.0227272727273  L 6 48.1896306818182  L 17.0979570455736 34.0951704545455  C 18.4040509865549 32.5142045454545  20.1257202723939 31.2091619318182  22.2629649030906 30.1800426136364  Z M 84.3321110529073 32.8870738636364  C 84.7773703509691 33.8416193181818  85 34.8558238636364  85 35.9296875  C 85 37.7791193181818  84.3172690763052 39.5688920454545  82.9518072289157 41.2990056818182  L 69.8166579360922 57.5411931818182  C 68.540247948315 59.1221590909091  66.818578662476 60.4272017045455  64.6516500785752 61.4563210227273  C 62.4847214946744 62.4854403409091  60.4068447703859 63  58.4180199057098 63  L 9.9738082765846 63  C 7.24288458180548 63  4.89785227867994 62.015625  2.93871136720796 60.046875  C 0.979570455735987 58.078125  0 55.7215909090909  0 52.9772727272727  L 0 10.0227272727273  C 0 7.27840909090908  0.979570455735987 4.921875  2.93871136720796 2.953125  C 4.89785227867994 0.984375  7.24288458180548 0  9.9738082765846 0  L 24.2221058145626 0  C 26.9530295093417 0  29.2980618124673 0.984375  31.2572027239392 2.953125  C 33.2163436354112 4.921875  34.1959140911472 7.27840909090908  34.1959140911472 10.0227272727273  L 34.1959140911472 12  L 58.4180199057098 12  C 61.1489436004889 11.4545454545455  63.4939759036145 12.4389204545455  65.4531168150864 14.4076704545455  C 67.4122577265584 16.3764204545455  68.3918281822944 18.7329545454545  68.3918281822944 21.4772727272727  L 68.3918281822944 28.6363636363636  L 76.9408067050812 28.6363636363636  C 78.5437401781037 28.6363636363636  80.0130958617077 29.0017755681818  81.3488737558931 29.7325994318182  C 82.6846516500786 30.4634232954545  83.6790640824166 31.5149147727273  84.3321110529073 32.8870738636364  Z " fill-rule="nonzero" fill="#869daa" stroke="none" transform="matrix(1 0 0 1 394 491 )" />
  </g>
</svg>