<?xml version="1.0" encoding="utf-8"?>
<svg version="1.1" xmlns:xlink="http://www.w3.org/1999/xlink" width="26px" height="27px" xmlns="http://www.w3.org/2000/svg">
  <g transform="matrix(1 0 0 1 -588 -205 )">
    <path d="M 13 25.7946428571429  C 13.1666666666667 25.7946428571429  13.25 25.7142857142857  13.25 25.5535714285714  C 13.25 25.3928571428571  13.1666666666667 25.3125  13 25.3125  C 12.3854166666667 25.3125  11.8567708333333 25.0990513392857  11.4140625 24.6721540178571  C 10.9713541666667 24.2452566964286  10.75 23.7354910714286  10.75 23.1428571428571  C 10.75 22.9821428571429  10.6666666666667 22.9017857142857  10.5 22.9017857142857  C 10.3333333333333 22.9017857142857  10.25 22.9821428571429  10.25 23.1428571428571  C 10.25 23.8761160714286  10.5182291666667 24.5013950892857  11.0546875 25.0186941964286  C 11.5911458333333 25.5359933035714  12.2395833333333 25.7946428571429  13 25.7946428571429  Z M 24.578125 19.8883928571429  C 25.0052083333333 20.3504464285714  25.4791666666667 20.7924107142857  26 21.2142857142857  C 26 21.7366071428571  25.8020833333333 22.1886160714286  25.40625 22.5703125  C 25.0104166666667 22.9520089285714  24.5416666666667 23.1428571428571  24 23.1428571428571  L 17 23.1428571428571  C 17 24.2075892857143  16.609375 25.1166294642857  15.828125 25.8699776785714  C 15.046875 26.6233258928571  14.1041666666667 27  13 27  C 11.8958333333333 27  10.953125 26.6233258928571  10.171875 25.8699776785714  C 9.390625 25.1166294642857  9 24.2075892857143  9 23.1428571428571  L 2 23.1428571428571  C 1.45833333333333 23.1428571428571  0.989583333333333 22.9520089285714  0.59375 22.5703125  C 0.197916666666667 22.1886160714286  0 21.7366071428571  0 21.2142857142857  C 0.520833333333333 20.7924107142857  0.994791666666667 20.3504464285714  1.421875 19.8883928571429  C 1.84895833333333 19.4263392857143  2.29166666666667 18.826171875  2.75 18.087890625  C 3.20833333333333 17.349609375  3.59635416666667 16.5535714285714  3.9140625 15.6997767857143  C 4.23177083333333 14.8459821428571  4.4921875 13.8113839285714  4.6953125 12.5959821428571  C 4.8984375 11.3805803571429  5 10.0747767857143  5 8.67857142857143  C 5 7.15178571428571  5.609375 5.73297991071429  6.828125 4.42215401785714  C 8.046875 3.111328125  9.64583333333333 2.31529017857143  11.625 2.03404017857143  C 11.5416666666667 1.84319196428571  11.5 1.64732142857143  11.5 1.44642857142857  C 11.5 1.04464285714286  11.6458333333333 0.703124999999999  11.9375 0.421875  C 12.2291666666667 0.140625000000001  12.5833333333333 0  13 0  C 13.4166666666667 0  13.7708333333333 0.140625000000001  14.0625 0.421875  C 14.3541666666667 0.703124999999999  14.5 1.04464285714286  14.5 1.44642857142857  C 14.5 1.64732142857143  14.4583333333333 1.84319196428571  14.375 2.03404017857143  C 16.3541666666667 2.31529017857143  17.953125 3.111328125  19.171875 4.42215401785714  C 20.390625 5.73297991071429  21 7.15178571428571  21 8.67857142857143  C 21 10.0747767857143  21.1015625 11.3805803571429  21.3046875 12.5959821428571  C 21.5078125 13.8113839285714  21.7682291666667 14.8459821428571  22.0859375 15.6997767857143  C 22.4036458333333 16.5535714285714  22.7916666666667 17.349609375  23.25 18.087890625  C 23.7083333333333 18.826171875  24.1510416666667 19.4263392857143  24.578125 19.8883928571429  Z " fill-rule="nonzero" fill="#869daa" stroke="none" transform="matrix(1 0 0 1 588 205 )" />
  </g>
</svg>