<?xml version="1.0" encoding="utf-8"?>
<svg version="1.1" xmlns:xlink="http://www.w3.org/1999/xlink" width="50px" height="39px" xmlns="http://www.w3.org/2000/svg">
  <g transform="matrix(1 0 0 1 -318 -351 )">
    <path d="M 6.87779017857143 32.1722301136364  C 7.05450148809524 32.34765625  7.14285714285714 32.5553977272727  7.14285714285714 32.7954545454545  L 7.14285714285714 38.1136363636364  C 7.14285714285714 38.3536931818182  7.05450148809524 38.5614346590909  6.87779017857143 38.7368607954545  C 6.70107886904762 38.9122869318182  6.49181547619048 39  6.25 39  L 0.892857142857143 39  C 0.651041666666667 39  0.441778273809524 38.9122869318182  0.265066964285714 38.7368607954545  C 0.0883556547619048 38.5614346590909  0 38.3536931818182  0 38.1136363636364  L 0 32.7954545454545  C 0 32.5553977272727  0.0883556547619048 32.34765625  0.265066964285714 32.1722301136364  C 0.441778273809524 31.9968039772727  0.651041666666667 31.9090909090909  0.892857142857143 31.9090909090909  L 6.25 31.9090909090909  C 6.49181547619048 31.9090909090909  6.70107886904762 31.9968039772727  6.87779017857143 32.1722301136364  Z M 6.87779017857143 21.5358664772727  C 7.05450148809524 21.7112926136364  7.14285714285714 21.9190340909091  7.14285714285714 22.1590909090909  L 7.14285714285714 27.4772727272727  C 7.14285714285714 27.7173295454545  7.05450148809524 27.9250710227273  6.87779017857143 28.1004971590909  C 6.70107886904762 28.2759232954545  6.49181547619048 28.3636363636364  6.25 28.3636363636364  L 0.892857142857143 28.3636363636364  C 0.651041666666667 28.3636363636364  0.441778273809524 28.2759232954545  0.265066964285714 28.1004971590909  C 0.0883556547619048 27.9250710227273  0 27.7173295454545  0 27.4772727272727  L 0 22.1590909090909  C 0 21.9190340909091  0.0883556547619048 21.7112926136364  0.265066964285714 21.5358664772727  C 0.441778273809524 21.3604403409091  0.651041666666667 21.2727272727273  0.892857142857143 21.2727272727273  L 6.25 21.2727272727273  C 6.49181547619048 21.2727272727273  6.70107886904762 21.3604403409091  6.87779017857143 21.5358664772727  Z M 6.87779017857143 10.8995028409091  C 7.05450148809524 11.0749289772727  7.14285714285714 11.2826704545454  7.14285714285714 11.5227272727273  L 7.14285714285714 16.8409090909091  C 7.14285714285714 17.0809659090909  7.05450148809524 17.2887073863636  6.87779017857143 17.4641335227273  C 6.70107886904762 17.6395596590909  6.49181547619048 17.7272727272727  6.25 17.7272727272727  L 0.892857142857143 17.7272727272727  C 0.651041666666667 17.7272727272727  0.441778273809524 17.6395596590909  0.265066964285714 17.4641335227273  C 0.0883556547619048 17.2887073863636  0 17.0809659090909  0 16.8409090909091  L 0 11.5227272727273  C 0 11.2826704545454  0.0883556547619048 11.0749289772727  0.265066964285714 10.8995028409091  C 0.441778273809524 10.7240767045455  0.651041666666667 10.6363636363636  0.892857142857143 10.6363636363636  L 6.25 10.6363636363636  C 6.49181547619048 10.6363636363636  6.70107886904762 10.7240767045455  6.87779017857143 10.8995028409091  Z M 49.7349330357143 32.1722301136364  C 49.9116443452381 32.34765625  50 32.5553977272727  50 32.7954545454545  L 50 38.1136363636364  C 50 38.3536931818182  49.9116443452381 38.5614346590909  49.7349330357143 38.7368607954545  C 49.5582217261905 38.9122869318182  49.3489583333333 39  49.1071428571429 39  L 11.6071428571429 39  C 11.3653273809524 39  11.1560639880952 38.9122869318182  10.9793526785714 38.7368607954545  C 10.8026413690476 38.5614346590909  10.7142857142857 38.3536931818182  10.7142857142857 38.1136363636364  L 10.7142857142857 32.7954545454545  C 10.7142857142857 32.5553977272727  10.8026413690476 32.34765625  10.9793526785714 32.1722301136364  C 11.1560639880952 31.9968039772727  11.3653273809524 31.9090909090909  11.6071428571429 32  L 49.1071428571429 32  C 49.3489583333333 31.9090909090909  49.5582217261905 31.9968039772727  49.7349330357143 32.1722301136364  Z M 6.87779017857143 0.263139204545453  C 7.05450148809524 0.43856534090909  7.14285714285714 0.646306818181815  7.14285714285714 0.886363636363636  L 7.14285714285714 6.20454545454545  C 7.14285714285714 6.44460227272727  7.05450148809524 6.65234374999999  6.87779017857143 6.82776988636364  C 6.70107886904762 7.00319602272727  6.49181547619048 7.09090909090909  6.25 7.09090909090909  L 0.892857142857143 7.09090909090909  C 0.651041666666667 7.09090909090909  0.441778273809524 7.00319602272727  0.265066964285714 6.82776988636364  C 0.0883556547619048 6.65234374999999  0 6.44460227272727  0 6.20454545454545  L 0 0.886363636363636  C 0 0.646306818181815  0.0883556547619048 0.43856534090909  0.265066964285714 0.263139204545453  C 0.441778273809524 0.087713068181812  0.651041666666667 0  0.892857142857143 0  L 6.25 0  C 6.49181547619048 0  6.70107886904762 0.087713068181812  6.87779017857143 0.263139204545453  Z M 49.7349330357143 21.5358664772727  C 49.9116443452381 21.7112926136364  50 21.9190340909091  50 22.1590909090909  L 50 27.4772727272727  C 50 27.7173295454545  49.9116443452381 27.9250710227273  49.7349330357143 28.1004971590909  C 49.5582217261905 28.2759232954545  49.3489583333333 28.3636363636364  49.1071428571429 28  L 11.6071428571429 28  C 11.3653273809524 28.3636363636364  11.1560639880952 28.2759232954545  10.9793526785714 28.1004971590909  C 10.8026413690476 27.9250710227273  10.7142857142857 27.7173295454545  10.7142857142857 27.4772727272727  L 10.7142857142857 22.1590909090909  C 10.7142857142857 21.9190340909091  10.8026413690476 21.7112926136364  10.9793526785714 21.5358664772727  C 11.1560639880952 21.3604403409091  11.3653273809524 21.2727272727273  11.6071428571429 21  L 49.1071428571429 21  C 49.3489583333333 21.2727272727273  49.5582217261905 21.3604403409091  49.7349330357143 21.5358664772727  Z M 49.7349330357143 10.8995028409091  C 49.9116443452381 11.0749289772727  50 11.2826704545454  50 11.5227272727273  L 50 16.8409090909091  C 50 17.0809659090909  49.9116443452381 17.2887073863636  49.7349330357143 17.4641335227273  C 49.5582217261905 17.6395596590909  49.3489583333333 17.7272727272727  49.1071428571429 18  L 11.6071428571429 18  C 11.3653273809524 17.7272727272727  11.1560639880952 17.6395596590909  10.9793526785714 17.4641335227273  C 10.8026413690476 17.2887073863636  10.7142857142857 17.0809659090909  10.7142857142857 16.8409090909091  L 10.7142857142857 11.5227272727273  C 10.7142857142857 11.2826704545454  10.8026413690476 11.0749289772727  10.9793526785714 10.8995028409091  C 11.1560639880952 10.7240767045455  11.3653273809524 10.6363636363636  11.6071428571429 11  L 49.1071428571429 11  C 49.3489583333333 10.6363636363636  49.5582217261905 10.7240767045455  49.7349330357143 10.8995028409091  Z M 49.7349330357143 0.263139204545453  C 49.9116443452381 0.43856534090909  50 0.646306818181815  50 0.886363636363636  L 50 6.20454545454545  C 50 6.44460227272727  49.9116443452381 6.65234374999999  49.7349330357143 6.82776988636364  C 49.5582217261905 7.00319602272727  49.3489583333333 7.09090909090909  49.1071428571429 7  L 11.6071428571429 7  C 11.3653273809524 7.09090909090909  11.1560639880952 7.00319602272727  10.9793526785714 6.82776988636364  C 10.8026413690476 6.65234374999999  10.7142857142857 6.44460227272727  10.7142857142857 6.20454545454545  L 10.7142857142857 0.886363636363636  C 10.7142857142857 0.646306818181815  10.8026413690476 0.43856534090909  10.9793526785714 0.263139204545453  C 11.1560639880952 0.087713068181812  11.3653273809524 0  11.6071428571429 0  L 49.1071428571429 0  C 49.3489583333333 0  49.5582217261905 0.087713068181812  49.7349330357143 0.263139204545453  Z " fill-rule="nonzero" fill="#869daa" stroke="none" transform="matrix(1 0 0 1 318 351 )" />
  </g>
</svg>