<?xml version="1.0" encoding="utf-8"?>
<svg version="1.1" xmlns:xlink="http://www.w3.org/1999/xlink" width="60px" height="50px" xmlns="http://www.w3.org/2000/svg">
  <g transform="matrix(1 0 0 1 -318 -559 )">
    <path d="M 27.9820627802691 37.5  L 29.8654708520179 37.5  L 33.7668161434978 33.3806818181818  L 28.6547085201794 27.9829545454545  L 24.7533632286996 32.1022727272727  L 24.7533632286996 34.0909090909091  L 27.9820627802691 34.0909090909091  L 27.9820627802691 37.5  Z M 44.6300448430493 13.1036931818182  C 45.0112107623318 12.7012310606061  45.0224215246637 12.3106060606061  44.6636771300448 11.9318181818182  C 44.304932735426 11.5530303030303  43.9349775784753 11.5648674242424  43.5538116591928 11.9673295454545  L 31.7825112107623 24.3963068181818  C 31.4013452914798 24.7987689393939  31.390134529148 25.1893939393939  31.7488789237668 25.5681818181818  C 32.1076233183857 25.9469696969697  32.4775784753363 25.9351325757576  32.8587443946188 25.5326704545455  L 44.6300448430493 13.1036931818182  Z M 46.6816143497758 31.9957386363636  C 47.1300448430493 32.1851325757576  47.3542600896861 32.5284090909091  47.3542600896861 33.0255681818182  L 47.3542600896861 39.7727272727273  C 47.3542600896861 42.5899621212121  46.4069506726457 44.9988162878788  44.512331838565 46.9992897727273  C 42.6177130044843 48.9997632575758  40.3363228699552 50  37.6681614349776 50  L 9.68609865470852 50  C 7.01793721973094 50  4.73654708520179 48.9997632575758  2.84192825112108 46.9992897727273  C 0.947309417040359 44.9988162878788  0 42.5899621212121  0 39.7727272727273  L 0 10.2272727272727  C 0 7.41003787878787  0.947309417040359 5.00118371212121  2.84192825112108 3.00071022727273  C 4.73654708520179 1.00023674242424  7.01793721973094 0  9.68609865470852 0  L 37.6681614349776 0  C 39.0807174887892 0  40.3923766816144 0.295928030303028  41.6031390134529 0.887784090909088  C 41.9394618834081 1.05350378787878  42.1412556053812 1.32575757575757  42.2085201793722 1.70454545454545  C 42.2757847533632 2.10700757575757  42.1748878923767 2.45028409090909  41.9058295964126 2.734375  L 40.2578475336323 4.47443181818182  C 39.9439461883408 4.80587121212121  39.585201793722 4.90056818181818  39.1816143497758 4.75852272727273  C 38.6659192825112 4.61647727272727  38.1614349775785 4.54545454545455  37.6681614349776 5  L 9.68609865470852 5  C 8.20627802690583 4.54545454545455  6.93946188340807 5.10179924242424  5.88565022421525 6.21448863636363  C 4.83183856502242 7.32717803030303  4.30493273542601 8.66477272727273  5 10.2272727272727  L 5 39.7727272727273  C 4.30493273542601 41.3352272727273  4.83183856502242 42.672821969697  5.88565022421525 43.7855113636364  C 6.93946188340807 44.8982007575758  8.20627802690583 45.4545454545455  9.68609865470852 45  L 37.6681614349776 45  C 39.1479820627803 45.4545454545455  40.414798206278 44.8982007575758  41.4686098654709 43.7855113636364  C 42.5224215246637 42.672821969697  43.0493273542601 41.3352272727273  43.0493273542601 39.7727272727273  L 43.0493273542601 35.2982954545455  C 43.0493273542601 34.9905303030303  43.1502242152466 34.7301136363636  43.3520179372197 34.5170454545455  L 45.5044843049327 32.2443181818182  C 45.8408071748879 31.8892045454545  46.2331838565022 31.8063446969697  46.6816143497758 31.9957386363636  Z M 22 30.6818181818182  L 44.1255605381166 6.81818181818182  L 53.8116591928251 17.0454545454545  L 31.2107623318386 40.9090909090909  L 22 40.9090909090909  L 22 30.6818181818182  Z M 60 9.09090909090909  C 60 10.0378787878788  59.6860986547085 10.842803030303  59.0582959641256 11.5056818181818  L 55.9641255605381 14.7727272727273  L 46.2780269058296 4.54545454545455  L 49.372197309417 1.27840909090909  C 50 0.615530303030298  50.762331838565 0.284090909090912  51.6591928251121 0.284090909090912  C 52.5560538116592 0.284090909090912  53.3183856502242 0.615530303030298  53.9461883408072 1.27840909090909  L 59.0582959641256 6.67613636363637  C 59.6860986547085 7.33901515151514  60 8.14393939393939  60 9.09090909090909  Z " fill-rule="nonzero" fill="#869daa" stroke="none" transform="matrix(1 0 0 1 318 559 )" />
  </g>
</svg>